# File generated by ImageToStl.com - Free Image and 3D model conversion tools

mtllib groundstone_sphere.mtl

o planet
v 0 98.07852189 -19.50904835
v -2.304E-05 100 3.933E-05
v 3.80602963 98.07852195 -19.13418729
v 0 -100 4.888E-05
v 1.51E-06 -98.07853421 -19.50897616
v 3.80602516 -98.07853414 -19.13413149
v -2.304E-05 100 3.933E-05
v 7.46579617 98.07852213 -18.02401054
v 0 -100 4.888E-05
v 7.46578649 -98.07853396 -18.02395474
v -2.304E-05 100 3.933E-05
v 10.83865687 98.07852242 -16.22117866
v 0 -100 4.888E-05
v 10.83864197 -98.07853367 -16.22112733
v -2.304E-05 100 3.933E-05
v 13.79499286 98.07852282 -13.79497606
v 0 -100 4.888E-05
v 13.79497349 -98.07853327 -13.79492771
v -2.304E-05 100 3.933E-05
v 16.22119397 98.0785233 -10.83863932
v 0 -100 4.888E-05
v 16.22117311 -98.07853279 -10.8385947
v -2.304E-05 100 3.933E-05
v 18.02402437 98.07852385 -7.46577862
v 0 -100 4.888E-05
v 18.02400053 -98.07853224 -7.46573922
v -2.304E-05 100 3.933E-05
v 19.13420111 98.07852445 -3.80601246
v 0 -100 4.888E-05
v 19.13417578 -98.07853165 -3.80597752
v -2.304E-05 100 3.933E-05
v 19.50906068 98.07852507 1.668E-05
v 0 -100 4.888E-05
v 19.50903684 -98.07853103 4.678E-05
v -2.304E-05 100 3.933E-05
v 19.13419962 98.07852569 3.80604569
v 0 -100 4.888E-05
v 19.13417578 -98.07853041 3.80607132
v -2.304E-05 100 3.933E-05
v 18.0240199 98.07852628 7.46581074
v 0 -100 4.888E-05
v 18.02399904 -98.07852981 7.46583227
v -2.304E-05 100 3.933E-05
v 16.22118801 98.07852683 10.83866921
v 0 -100 4.888E-05
v 16.22117013 -98.07852926 10.83868775
v -2.304E-05 100 3.933E-05
v 13.79498541 98.07852731 13.79500371
v 0 -100 4.888E-05
v 13.79497051 -98.07852878 13.79501927
v -2.304E-05 100 3.933E-05
v 10.83864942 98.07852771 16.22120332
v 0 -100 4.888E-05
v 10.83863899 -98.07852838 16.2212174
v -2.304E-05 100 3.933E-05
v 7.4657917 98.078528 18.02403223
v 0 -100 4.888E-05
v 7.465785 -98.07852809 18.02404482
v -2.304E-05 100 3.933E-05
v 3.80602702 98.07852818 19.13420897
v 0 -100 4.888E-05
v 3.80602404 -98.07852791 19.13422007
v -2.304E-05 100 3.933E-05
v -7.2E-07 98.07852824 19.50906854
v 0 -100 4.888E-05
v 4E-07 -98.07852785 19.50907964
v 0 -100 4.888E-05
v -3.80602293 -98.07852791 19.13421858
v -2.304E-05 100 3.933E-05
v -3.80602814 98.07852818 19.13420599
v -2.304E-05 100 3.933E-05
v -7.46579096 98.078528 18.02402776
v 0 -100 4.888E-05
v -7.46578202 -98.07852809 18.02404035
v -2.304E-05 100 3.933E-05
v -10.83864719 98.07852771 16.22119736
v 0 -100 4.888E-05
v -10.83863452 -98.07852838 16.22121144
v -2.304E-05 100 3.933E-05
v -13.79498094 98.07852731 13.79499626
v 0 -100 4.888E-05
v -13.79496455 -98.07852878 13.79501331
v -2.304E-05 100 3.933E-05
v -16.22118056 98.07852683 10.83866176
v 0 -100 4.888E-05
v -16.22116268 -98.07852926 10.83868179
v -2.304E-05 100 3.933E-05
v -18.02400947 98.07852628 7.46580478
v 0 -100 4.888E-05
v -18.0239886 -98.07852981 7.4658278
v -2.304E-05 100 3.933E-05
v -19.13418621 98.07852569 3.80604159
v 0 -100 4.888E-05
v -19.13416386 -98.07853041 3.80606945
v -2.304E-05 100 3.933E-05
v -19.50904578 98.07852507 1.519E-05
v 0 -100 4.888E-05
v -19.50902492 -98.07853103 4.753E-05
v -19.50904578 98.07852507 1.519E-05
v -2.304E-05 100 3.933E-05
v -19.13418472 98.07852445 -3.80601059
v 0 -100 4.888E-05
v -19.50902492 -98.07853103 4.753E-05
v -19.13416386 -98.07853165 -3.80597417
v -2.304E-05 100 3.933E-05
v -18.02400798 98.07852385 -7.46577266
v 0 -100 4.888E-05
v -18.0239886 -98.07853224 -7.46573251
v -2.304E-05 100 3.933E-05
v -16.22117758 98.0785233 -10.83862889
v 0 -100 4.888E-05
v -16.22116119 -98.07853279 -10.83858427
v -2.304E-05 100 3.933E-05
v -13.79497647 98.07852282 -13.79496265
v 0 -100 4.888E-05
v -13.79496306 -98.07853327 -13.79491579
v -2.304E-05 100 3.933E-05
v -10.83864272 98.07852242 -16.22116226
v 0 -100 4.888E-05
v -10.83863229 -98.07853367 -16.22111392
v -2.304E-05 100 3.933E-05
v -7.46578574 98.07852213 -18.02399266
v 0 -100 4.888E-05
v -7.46577904 -98.07853396 -18.02394133
v -2.304E-05 100 3.933E-05
v -3.80602255 98.07852195 -19.13416791
v 0 -100 4.888E-05
v -3.80602032 -98.07853414 -19.13411659
v -2.304E-05 100 3.933E-05
v 0 -100 4.888E-05
v 0 -19.50903643 -98.07852785
v 0 -8.74E-06 -100
v 19.50903833 -8.43E-06 -98.07852507
v 19.13417876 -19.50903612 -96.19397203
v 0 92.38794419 -38.26836065
v 7.46579096 92.38794431 -37.53304497
v 6.36E-06 -38.26834276 -92.3878965
v 18.02400202 -38.26834248 -90.61273905
v 0 83.14695049 -55.55703803
v 10.83864495 83.14695067 -54.4895248
v 2.722E-05 -55.55703206 -83.14686705
v 16.2211746 -55.5570318 -81.54930759
v 0 70.71066539 -70.71068843
v 13.79497498 70.71066561 -69.35200055
v 1.53E-05 -70.71068843 -70.71062367
v 13.79497498 -70.71068821 -69.35197751
v 0 55.55700497 -83.14697456
v 16.2211746 55.55700523 -81.5493257
v 0 -83.14697456 -55.55700497
v 10.83864346 -83.14697438 -54.48949174
v 0 38.26832756 -92.38795666
v 18.02400053 38.26832785 -90.61274556
v 7.85E-06 -92.38796858 -38.2682769
v 7.46578723 -92.38796846 -37.53299698
v 0 19.50901937 -98.07852824
v 19.13417727 19.50901968 -96.19397243
v 37.53303885 19.50902059 -90.61273654
v 38.26835454 -7.5E-06 -92.38794446
v 37.53303885 -19.50903521 -90.61273019
v 14.64467347 92.38794466 -35.35535649
v 35.35535038 -38.26834162 -85.35532924
v 21.26076519 83.14695118 -51.32800503
v 31.818977 -55.55703103 -76.81775976
v 27.05981731 70.71066627 -65.32815059
v 27.05981731 -70.71068755 -65.32812755
v 31.818977 55.557006 -76.81777786
v 21.26076221 -83.14697387 -51.32797198
v 35.35534739 38.26832871 -85.35533575
v 14.64466751 -92.3879681 -35.3553085
v 46.19399309 -55.55702978 -69.13415481
v 39.28476572 -70.71068649 -58.79375975
v 39.28476572 70.71066733 -58.79378279
v 46.19399309 55.55700726 -69.13417291
v 30.8658421 -83.14697303 -46.19394974
v 51.32800937 38.2683301 -76.81776909
v 21.26076221 -92.38796753 -31.81893214
v 54.48952317 19.50902206 -81.54930194
v 55.55704236 -6E-06 -83.14694762
v 54.48952317 -19.50903373 -81.54929558
v 21.26077116 92.38794524 -31.81897715
v 51.32800937 -38.26834023 -76.81776258
v 30.86584508 83.14695202 -46.1939828
v 70.71070075 -3.97E-06 -70.71065903
v 69.35200691 -19.50903175 -69.35196797
v 27.05982924 92.38794601 -27.0598115
v 65.32816291 -38.26833836 -65.32813283
v 39.2847687 83.14695314 -39.28474946
v 58.79380107 -55.5570281 -58.79375626
v 50.00001788 70.71066876 -49.9999996
v 50.00001788 -70.71068505 -49.99997656
v 58.79380107 55.55700894 -58.79377436
v 39.28476572 -83.1469719 -39.28471641
v 65.32816291 38.26833197 -65.32813934
v 27.05981731 -92.38796675 -27.05977246
v 69.35200691 19.50902405 -69.35197433
v 58.79380107 70.71067051 -39.28474148
v 69.13419366 55.55701099 -46.19396638
v 58.79380107 -70.71068331 -39.28471844
v 46.19399309 -83.14697053 -30.86579279
v 76.81779265 38.26833425 -51.3279858
v 31.81897998 -92.38796581 -21.26071736
v 81.54932857 19.50902647 -54.48948463
v 83.14698339 -1.5E-06 -55.55700064
v 81.54932857 -19.50902933 -54.48947827
v 31.8189919 92.38794696 -21.26075491
v 76.81779265 -38.26833608 -51.32797929
v 46.19399905 83.14695451 -30.86582585
v 69.13419366 -55.55702604 -46.19394828
v 92.38797426 1.32E-06 -38.26831579
v 90.61275125 -19.50902656 -37.53298799
v 35.35536826 92.38794803 -14.64465723
v 85.35535336 -38.26833347 -35.35531732
v 51.32802129 83.14695608 -21.26074596
v 76.81779861 -55.5570237 -31.8189292
v 65.32816887 70.7106725 -27.05979307
v 65.32816887 -70.71068132 -27.05977003
v 76.81779861 55.55701333 -31.81894731
v 51.32801533 -83.14696897 -21.26071291
v 85.35535336 38.26833685 -35.35532383
v 35.35535336 -92.38796473 -14.64462265
v 90.61275125 19.50902923 -37.53299435
v 69.35201287 -70.71067916 -13.79493068
v 54.48952913 -83.14696727 -10.83859341
v 81.54933453 55.55701588 -16.2211464
v 90.61275721 38.26833968 -18.02397696
v 37.53304183 -92.38796356 -7.46574089
v 96.19398117 19.50903223 -19.13413723
v 98.07854891 4.37E-06 -19.50899959
v 96.19398117 -19.50902357 -19.13413088
v 37.53305674 92.3879492 -7.46577248
v 90.61275721 -38.26833065 -18.02397045
v 54.48953509 83.14695778 -10.83862497
v 81.54933453 -55.55702116 -16.22112829
v 69.35201287 70.71067466 -13.79495372
v 98.07852507 -19.50902045 4.255E-05
v 92.3879683 -38.26832771 2.921E-05
v 38.26836944 92.38795042 1.687E-05
v 55.55704832 83.14695954 1.763E-05
v 83.14697742 -55.55701852 4.246E-05
v 70.71069479 70.71067691 2.04E-05
v 70.71069479 -70.71067691 4.344E-05
v 83.14697742 55.55701852 2.436E-05
v 55.5570364 -83.1469655 4.77E-05
v 92.3879683 38.26834261 2.121E-05
v 38.26835454 -92.38796234 4.548E-05
v 98.07852507 19.50903535 3.619E-05
v 100.00002384 7.55E-06 3.788E-05
v 54.48952317 -83.14696374 10.8386883
v 37.53303885 -92.38796112 7.46583134
v 90.61275721 38.26834555 18.02401962
v 96.19396925 19.50903847 19.13420687
v 98.07854891 1.073E-05 19.50907409
v 96.19396925 -19.50901733 19.13421323
v 37.53305376 92.38795164 7.46580571
v 90.61275721 -38.26832478 18.02402762
v 54.48953509 83.14696131 10.83866046
v 81.54932857 -55.55701588 16.22121196
v 69.35200691 70.71067916 13.79499177
v 69.35200691 -70.71067466 13.79501482
v 81.54932857 55.55702116 16.22119386
v 35.3553623 92.38795281 14.64468673
v 51.32801533 83.14696301 21.26077847
v 85.35535336 -38.26832195 35.35537151
v 76.81778073 -55.55701333 31.81901287
v 65.32816291 70.71068132 27.05982964
v 65.32816291 -70.7106725 27.05985268
v 76.81778073 55.5570237 31.81899477
v 51.32800341 -83.14696204 21.26080556
v 85.35535336 38.26834837 35.355365
v 35.35534739 -92.38795996 14.64471087
v 90.61273336 19.50904146 37.53305952
v 92.3879683 1.378E-05 38.26838732
v 90.61273336 -19.50901433 37.53306587
v 76.81778669 38.26835098 51.32802101
v 81.54930472 19.50904423 54.48953788
v 31.81897104 -92.38795888 21.26080409
v 83.14697146 1.66E-05 55.5570662
v 81.54930472 -19.50901157 54.48954423
v 31.81898594 92.38795388 21.26077995
v 76.81778669 -38.26831935 51.32803348
v 46.19399309 83.14696457 30.86585538
v 69.13417578 -55.55701099 46.19402598
v 58.79379511 70.71068331 39.28477208
v 58.79379511 -70.71067051 39.28479512
v 69.13417578 55.55702604 46.19400788
v 46.19398117 -83.14696048 30.86587949
v 65.32816291 -38.26831707 65.32818702
v 58.79377723 -55.55700894 58.793828
v 39.28475976 83.14696594 39.28477602
v 50.00000596 70.71068505 50.00002424
v 50.00000596 -70.71066876 50.00004728
v 58.79377723 55.5570281 58.7938099
v 39.28475082 -83.1469591 39.28479715
v 65.32816291 38.26835326 65.32817456
v 27.05980837 -92.38795793 27.05985621
v 69.35198307 19.50904665 69.35201565
v 70.71068287 1.907E-05 70.71072459
v 69.35198307 -19.50900915 69.35202201
v 27.05982327 92.38795483 27.05983504
v 21.26075476 -92.38795716 31.81901291
v 54.48949933 19.50904863 81.54933731
v 55.55702448 2.11E-05 83.14700723
v 54.48949933 -19.50900716 81.54934366
v 21.26076519 92.3879556 31.81899473
v 51.32800937 -38.2683152 76.81781677
v 30.86583614 83.14696707 46.19400339
v 46.19397223 -55.55700726 69.13421463
v 39.28475082 70.71068649 58.79380743
v 39.28475082 -70.71066733 58.79383047
v 46.19397223 55.55702978 69.13419653
v 30.8658272 -83.14695798 46.19402452
v 51.32800937 38.26835513 76.8178043
v 21.26075923 83.14696791 51.32802562
v 27.05980241 70.71068755 65.32816927
v 31.81895614 -55.557006 76.81781363
v 27.05980241 -70.71066627 65.32819231
v 31.81895614 55.55703103 76.81779552
v 21.26075029 -83.14695714 51.32804079
v 35.35534739 38.26835652 85.355365
v 14.64466155 -92.38795658 35.35538629
v 37.53301501 19.50905011 90.61275999
v 38.26833963 2.26E-05 92.3879981
v 37.53301501 -19.50900569 90.61276634
v 14.64467049 92.38795618 35.35536811
v 35.35534739 -38.26831381 85.35537747
v 19.13416088 19.50905102 96.19398991
v 19.50902492 2.353E-05 98.07857275
v 19.13416088 -19.50900478 96.19399627
v 7.46579021 92.38795654 37.53305659
v 18.02400202 -38.26831295 90.61278132
v 10.83864272 83.14696842 54.48953943
v 16.22115672 -55.55700523 81.54934358
v 13.79496604 70.71068821 69.35201327
v 13.79496604 -70.71066561 69.35203631
v 16.22115672 55.5570318 81.54932547
v 10.83863601 -83.14695663 54.4895546
v 18.02400202 38.26835738 90.61276885
v 7.46578425 -92.38795623 37.53307477
v -8.54E-06 -55.55700497 83.14698052
v -2.58E-06 -70.71066539 70.71071823
v -2.58E-06 70.71068843 70.71069519
v -8.54E-06 55.55703206 83.14696241
v -1.09E-06 -83.14695645 55.55706187
v 6.36E-06 38.26835767 92.38797995
v 4E-07 -92.38795611 38.26838747
v -8.54E-06 19.50905133 98.07853381
v -1.003E-05 2.384E-05 100.00003576
v -8.54E-06 -19.50900447 98.07854017
v 4.12E-06 92.38795666 38.26836929
v 6.36E-06 -38.26831266 92.38799242
v 2.63E-06 83.14696859 55.55705266
v -19.50904429 2.353E-05 98.07856083
v -19.13417578 -19.50900478 96.19398435
v -7.46578127 92.38795654 37.53305062
v -18.02399009 -38.26831295 90.61278132
v -10.83863676 83.14696842 54.48953943
v -16.22117311 -55.55700523 81.54933166
v -13.794972 70.71068821 69.35200731
v -13.794972 -70.71066561 69.35203035
v -16.22117311 55.5570318 81.54931355
v -10.83863676 -83.14695663 54.48954864
v -18.02399009 38.26835738 90.61276885
v -7.46578202 -92.38795623 37.53306881
v -19.13417578 19.50905102 96.19397799
v -27.05980539 -70.71066627 65.32818635
v -21.26075029 -83.14695714 51.32803483
v -31.81896508 55.55703103 76.81776572
v -35.35533249 38.26835652 85.355365
v -14.64465857 -92.38795658 35.35537735
v -37.53302693 19.50905011 90.61274211
v -38.26835752 2.26E-05 92.38798022
v -37.53302693 -19.50900569 90.61274846
v -14.64466006 92.38795618 35.35535917
v -35.35533249 -38.26831381 85.35537747
v -21.26075327 83.14696791 51.32802562
v -31.81896508 -55.557006 76.81778382
v -27.05980539 70.71068755 65.32816331
v -21.26075178 92.3879556 31.81898281
v -54.48950529 -19.50900716 81.54931982
v -51.32799149 -38.2683152 76.81781081
v -30.86583018 83.14696707 46.19400339
v -46.19396925 -55.55700726 69.13417887
v -39.28474784 70.71068649 58.79379551
v -39.28474784 -70.71066733 58.79381855
v -46.19396925 55.55702978 69.13416077
v -30.86582422 -83.14695798 46.1940126
v -51.32799149 38.26835513 76.81779834
v -21.26074731 -92.38795716 31.81900099
v -54.48950529 19.50904863 81.54931347
v -55.5570364 2.11E-05 83.14698339
v -58.79376531 55.5570281 58.79376818
v -65.32813907 38.26835326 65.32816859
v -39.28474188 -83.1469591 39.28478225
v -27.05979943 -92.38795793 27.05984131
v -69.35197711 19.50904665 69.35198585
v -70.71068883 1.907E-05 70.71069479
v -69.35197711 -19.50900915 69.35199221
v -27.05980539 92.38795483 27.05982014
v -65.32813907 -38.26831707 65.32818106
v -39.28475082 83.14696594 39.28477304
v -58.79376531 -55.55700894 58.79378628
v -50 70.71068505 50.00001232
v -50 -70.71066876 50.00003536
v -81.5492928 -19.50901157 54.48950847
v -76.81776881 -38.26831935 51.32803348
v -31.81896508 92.38795388 21.26076504
v -46.19397819 83.14696457 30.86584942
v -69.13415194 -55.55701099 46.19398724
v -58.79377723 70.71068331 39.28476016
v -58.79377723 -70.71067051 39.2847832
v -69.13415194 55.55702604 46.19396914
v -46.19396925 -83.14696048 30.86586161
v -76.81776881 38.26835098 51.32802101
v -31.81895614 -92.38795888 21.26078621
v -81.5492928 19.50904423 54.48950211
v -83.1469655 1.66E-05 55.5570364
v -51.32798553 -83.14696204 21.26078768
v -35.35532653 -92.38795996 14.64469597
v -85.35533547 38.26834837 35.355365
v -90.61271548 19.50904146 37.53302078
v -92.38795042 1.378E-05 38.26835454
v -90.61271548 -19.50901433 37.53302713
v -35.35533547 92.38795281 14.64467183
v -85.35533547 -38.26832195 35.35537747
v -51.32799745 83.14696301 21.26076953
v -76.81774497 -55.55701333 31.81897711
v -65.32814503 70.71068132 27.05981473
v -65.32814503 -70.7106725 27.05983778
v -76.81774497 55.5570237 31.81895901
v -37.53302097 92.38795164 7.46579528
v -54.48951125 83.14696131 10.83865301
v -90.61273932 -38.26832478 18.02403358
v -81.54928088 -55.55701588 16.22118365
v -69.35198903 70.71067916 13.79497687
v -69.35198903 -70.71067466 13.79499991
v -81.54928088 55.55702116 16.22116555
v -54.48949933 -83.14696374 10.83867563
v -90.61273932 38.26834555 18.02402111
v -37.53301203 -92.38796112 7.46582091
v -96.19393945 19.50903847 19.13417111
v -98.07851911 1.073E-05 19.50904429
v -96.19393945 -19.50901733 19.13417747
v -92.38794446 38.26834261 2.568E-05
v -98.07848334 19.50903535 6.39E-06
v -38.26832473 -92.38796234 4.026E-05
v -99.99998212 7.55E-06 1.404E-05
v -98.07848334 -19.50902045 1.275E-05
v -38.26833665 92.38795042 1.314E-05
v -92.38794446 -38.26832771 3.815E-05
v -55.55701852 83.14695954 1.465E-05
v -83.14692378 -55.55701852 2.309E-05
v -70.71067095 70.71067691 6.99E-06
v -70.71067095 -70.71067691 3.003E-05
v -83.14692378 55.55701852 4.99E-06
v -55.5570066 -83.1469655 3.95E-05
v -83.14692378 -55.55701852 2.309E-05
v -92.38794446 -38.26832771 3.815E-05
v -90.61273336 -38.26833065 -18.02395704
v -81.54926896 -55.55702116 -16.22113723
v -70.71067095 70.71067691 6.99E-06
v -55.55701852 83.14695954 1.465E-05
v -54.48950529 83.14695778 -10.83862199
v -69.35198307 70.71067466 -13.79496117
v -70.71067095 -70.71067691 3.003E-05
v -69.35198307 -70.71067916 -13.79493813
v -83.14692378 55.55701852 4.99E-06
v -81.54926896 55.55701588 -16.22115534
v -55.5570066 -83.1469655 3.95E-05
v -54.48949337 -83.14696727 -10.8385949
v -92.38794446 38.26834261 2.568E-05
v -90.61273336 38.26833968 -18.02396951
v -38.26832473 -92.38796234 4.026E-05
v -37.53300905 -92.38796356 -7.4657394
v -98.07848334 19.50903535 6.39E-06
v -96.19392157 19.50903223 -19.1341566
v -99.99998212 7.55E-06 1.404E-05
v -98.07850122 4.37E-06 -19.50901598
v -98.07848334 -19.50902045 1.275E-05
v -96.19392157 -19.50902357 -19.13415025
v -38.26833665 92.38795042 1.314E-05
v -37.53302097 92.3879492 -7.46576876
v -35.35532057 -92.38796473 -14.64461371
v -90.61268568 19.50902923 -37.53300031
v -92.38792062 1.32E-06 -38.26832175
v -90.61268568 -19.50902656 -37.53299395
v -35.35533249 92.38794803 -14.64464531
v -85.35532951 -38.26833347 -35.35529944
v -51.32798553 83.14695608 -21.26073702
v -76.81772709 -55.5570237 -31.81892622
v -65.32813311 70.7106725 -27.05979605
v -65.32813311 -70.71068132 -27.05977301
v -76.81772709 55.55701333 -31.81894433
v -51.3279736 -83.14696897 -21.26070695
v -85.35532951 38.26833685 -35.35531191
v -69.13412213 -55.55702604 -46.1939304
v -58.79376531 -70.71068331 -39.28471248
v -58.79376531 70.71067051 -39.28473552
v -69.13412213 55.55701099 -46.1939485
v -46.19395137 -83.14697053 -30.86577789
v -76.81776285 38.26833425 -51.32796792
v -31.81894422 -92.38796581 -21.26070097
v -81.54925704 19.50902647 -54.48947271
v -83.14692378 -1.5E-06 -55.55699468
v -81.54925704 -19.50902933 -54.48946635
v -31.81895614 92.38794696 -21.26073554
v -76.81776285 -38.26833608 -51.32795545
v -46.19396329 83.14695451 -30.86581095
v -70.71063519 -3.97E-06 -70.71064115
v -69.35193539 -19.50903175 -69.35193221
v -27.05979347 92.38794601 -27.05978468
v -65.32813907 -38.26833836 -65.32810303
v -39.28473294 83.14695314 -39.2847286
v -58.79372954 -55.5570281 -58.79372645
v -49.9999851 70.71066876 -49.9999847
v -49.9999851 -70.71068505 -49.99996166
v -58.79372954 55.55700894 -58.79374456
v -39.284724 -83.1469719 -39.28469257
v -65.32813907 38.26833197 -65.3281155
v -27.05978751 -92.38796675 -27.05974862
v -69.35193539 19.50902405 -69.35193857
v -39.28472996 70.71066733 -58.79375895
v -46.19393051 55.55700726 -69.13412522
v -39.28472996 -70.71068649 -58.7937359
v -30.86580634 -83.14697303 -46.19391696
v -51.32798553 38.2683301 -76.81773928
v -21.26073688 -92.38796753 -31.81890532
v -54.48945761 19.50902206 -81.5492483
v -55.55698276 -6E-06 -83.14691186
v -54.48945761 -19.50903373 -81.54924194
v -21.26074135 92.38794524 -31.81894139
v -51.32798553 -38.26834023 -76.81772681
v -30.8658123 83.14695202 -46.19395299
v -46.19393051 -55.55702978 -69.13410712
v -38.26830387 -7.5E-06 -92.38789082
v -37.53297925 -19.50903521 -90.61265866
v -14.64465111 92.38794466 -35.35531476
v -35.35532951 -38.26834162 -85.35528752
v -21.26073837 83.14695118 -51.32796927
v -31.81892037 -55.55703103 -76.81770016
v -27.05978751 70.71066627 -65.32812675
v -27.05978751 -70.71068755 -65.3281037
v -31.81892037 55.557006 -76.81771826
v -21.26073241 -83.14697387 -51.32793026
v -35.35532951 38.26832871 -85.35529999
v -14.64464813 -92.3879681 -35.3552787
v -37.53297925 19.50902059 -90.61266502
v -13.79495263 -70.71068821 -69.35194175
v -10.83862036 -83.14697438 -54.4894381
v -16.22113138 55.55700523 -81.54924821
v -18.02398711 38.26832785 -90.61270384
v -7.46577233 -92.38796846 -37.5329642
v -19.13413405 19.50901968 -96.19388898
v -19.5089981 -8.43E-06 -98.07845354
v -19.13413405 -19.50903612 -96.19388262
v -7.46577382 92.38794431 -37.53300026
v -18.02398711 -38.26834248 -90.61269137
v -10.83862409 83.14695067 -54.48947711
v -16.22113138 -55.5570318 -81.54923011
v -13.79495263 70.71066561 -69.35196479
vn 0 0.20097 0.9796
vn 0 0 1
vn 0.03919 0.19709 0.9796
vn 0 0 -1
vn 0 0.20097 -0.9796
vn 0.03919 0.19709 -0.9796
vn 0.07691 0.18565 0.9796
vn 0.07691 0.18565 -0.9796
vn 0.11164 0.16709 0.9796
vn 0.11164 0.16709 -0.9796
vn 0.1421 0.1421 0.9796
vn 0.1421 0.1421 -0.9796
vn 0.16709 0.11164 0.9796
vn 0.16709 0.11164 -0.9796
vn 0.18565 0.07691 0.9796
vn 0.18565 0.07691 -0.9796
vn 0.19709 0.03919 0.9796
vn 0.19709 0.03919 -0.9796
vn 0.20097 0 0.9796
vn 0.20097 0 -0.9796
vn 0.19709 -0.03919 0.9796
vn 0.19709 -0.03919 -0.9796
vn 0.18565 -0.07691 0.9796
vn 0.18565 -0.07691 -0.9796
vn 0.16709 -0.11164 0.9796
vn 0.16709 -0.11164 -0.9796
vn 0.1421 -0.1421 0.9796
vn 0.1421 -0.1421 -0.9796
vn 0.11164 -0.16709 0.9796
vn 0.11164 -0.16709 -0.9796
vn 0.07691 -0.18565 0.9796
vn 0.07691 -0.18565 -0.9796
vn 0.03919 -0.19709 0.9796
vn 0.03919 -0.19709 -0.9796
vn 0 -0.20097 0.9796
vn 0 -0.20097 -0.9796
vn -0.03919 -0.19709 -0.9796
vn -0.03919 -0.19709 0.9796
vn -0.07691 -0.18565 0.9796
vn -0.07691 -0.18565 -0.9796
vn -0.11164 -0.16709 0.9796
vn -0.11164 -0.16709 -0.9796
vn -0.1421 -0.1421 0.9796
vn -0.1421 -0.1421 -0.9796
vn -0.16709 -0.11164 0.9796
vn -0.16709 -0.11164 -0.9796
vn -0.18565 -0.07691 0.9796
vn -0.18565 -0.07691 -0.9796
vn -0.19709 -0.03919 0.9796
vn -0.19709 -0.03919 -0.9796
vn -0.20097 0 0.9796
vn -0.20097 0 -0.9796
vn -0.19709 0.03919 0.9796
vn -0.19709 0.03919 -0.9796
vn -0.18565 0.07691 0.9796
vn -0.18565 0.07691 -0.9796
vn -0.16709 0.11164 0.9796
vn -0.16709 0.11164 -0.9796
vn -0.1421 0.1421 0.9796
vn -0.1421 0.1421 -0.9796
vn -0.11164 0.16709 0.9796
vn -0.11164 0.16709 -0.9796
vn -0.07691 0.18565 0.9796
vn -0.07691 0.18565 -0.9796
vn -0.03919 0.19709 0.9796
vn -0.03919 0.19709 -0.9796
vn 0 0.98102 -0.19392
vn 0 1 0
vn 0.19508 0.98079 0
vn 0.19138 0.96217 -0.19392
vn 0 0.38787 0.92171
vn 0.07566 0.38042 0.92171
vn 0 0.92476 -0.38054
vn 0.1804 0.907 -0.38054
vn 0 0.55977 0.82864
vn 0.1092 0.54901 0.82865
vn 0 0.83334 -0.55275
vn 0.16257 0.81733 -0.55276
vn 0 0.71015 0.70405
vn 0.13853 0.69651 0.70405
vn 0 0.71015 -0.70405
vn 0.13853 0.69651 -0.70405
vn 0 0.83334 0.55275
vn 0.16257 0.81733 0.55276
vn 0 0.55977 -0.82864
vn 0.1092 0.54901 -0.82865
vn 0 0.92476 0.38054
vn 0.1804 0.907 0.38054
vn 0 0.38787 -0.92171
vn 0.07566 0.38042 -0.92171
vn 0 0.98102 0.19392
vn 0.19138 0.96217 0.19392
vn 0.37541 0.90635 0.19392
vn 0.38268 0.92388 0
vn 0.37541 0.90635 -0.19392
vn 0.14842 0.35836 0.92171
vn 0.35389 0.85437 -0.38054
vn 0.21421 0.51715 0.82866
vn 0.3189 0.76991 -0.55276
vn 0.27175 0.65609 0.70406
vn 0.27175 0.65609 -0.70406
vn 0.3189 0.76991 0.55276
vn 0.21421 0.51715 -0.82866
vn 0.35387 0.85438 0.38054
vn 0.14842 0.35836 -0.92171
vn 0.46297 0.6929 -0.55276
vn 0.39453 0.59046 -0.70406
vn 0.39453 0.59046 0.70406
vn 0.46297 0.6929 0.55276
vn 0.31099 0.46542 -0.82866
vn 0.51376 0.76892 0.38054
vn 0.2155 0.3225 -0.92171
vn 0.54502 0.81569 0.19392
vn 0.55557 0.83147 0
vn 0.54502 0.81569 -0.19392
vn 0.2155 0.3225 0.92171
vn 0.51376 0.76892 -0.38054
vn 0.31099 0.46542 0.82866
vn 0.70711 0.70711 0
vn 0.69368 0.69368 -0.19392
vn 0.27428 0.27428 0.92171
vn 0.65391 0.65391 -0.38054
vn 0.3958 0.3958 0.82866
vn 0.58926 0.58926 -0.55276
vn 0.50214 0.50214 0.70406
vn 0.50214 0.50214 -0.70406
vn 0.58926 0.58926 0.55276
vn 0.3958 0.3958 -0.82866
vn 0.65391 0.65391 0.38054
vn 0.27428 0.27428 -0.92171
vn 0.69368 0.69368 0.19392
vn 0.59046 0.39453 0.70406
vn 0.6929 0.46297 0.55276
vn 0.59046 0.39453 -0.70406
vn 0.46542 0.31099 -0.82866
vn 0.76892 0.51376 0.38054
vn 0.3225 0.2155 -0.92171
vn 0.81569 0.54502 0.19392
vn 0.83147 0.55557 0
vn 0.81569 0.54502 -0.19392
vn 0.3225 0.2155 0.92171
vn 0.76892 0.51376 -0.38054
vn 0.46542 0.31099 0.82866
vn 0.6929 0.46297 -0.55276
vn 0.92388 0.38268 0
vn 0.90635 0.37541 -0.19392
vn 0.35836 0.14842 0.92171
vn 0.85438 0.35387 -0.38054
vn 0.51715 0.21421 0.82866
vn 0.76991 0.3189 -0.55276
vn 0.65609 0.27175 0.70406
vn 0.65609 0.27175 -0.70406
vn 0.76991 0.3189 0.55276
vn 0.51715 0.21421 -0.82866
vn 0.85438 0.35387 0.38054
vn 0.35836 0.14842 -0.92171
vn 0.90635 0.37541 0.19392
vn 0.69651 0.13853 -0.70405
vn 0.54901 0.1092 -0.82865
vn 0.81733 0.16257 0.55276
vn 0.907 0.1804 0.38054
vn 0.38042 0.07566 -0.92171
vn 0.96217 0.19138 0.19392
vn 0.98079 0.19508 0
vn 0.96217 0.19138 -0.19392
vn 0.38042 0.07566 0.92171
vn 0.907 0.1804 -0.38054
vn 0.54901 0.1092 0.82865
vn 0.81733 0.16257 -0.55276
vn 0.69651 0.13853 0.70405
vn 0.98102 0 -0.19392
vn 0.92476 0 -0.38054
vn 0.38787 0 0.92171
vn 0.55977 0 0.82864
vn 0.83334 0 -0.55275
vn 0.71015 0 0.70405
vn 0.71015 0 -0.70405
vn 0.83334 0 0.55275
vn 0.55977 0 -0.82864
vn 0.92476 0 0.38054
vn 0.38787 0 -0.92171
vn 0.98102 0 0.19392
vn 1 0 0
vn 0.54901 -0.1092 -0.82865
vn 0.38042 -0.07566 -0.92171
vn 0.907 -0.1804 0.38054
vn 0.96217 -0.19138 0.19392
vn 0.98079 -0.19508 0
vn 0.96217 -0.19138 -0.19392
vn 0.38042 -0.07566 0.92171
vn 0.907 -0.1804 -0.38054
vn 0.54901 -0.1092 0.82865
vn 0.81733 -0.16257 -0.55276
vn 0.69651 -0.13853 0.70405
vn 0.69651 -0.13853 -0.70405
vn 0.81733 -0.16257 0.55276
vn 0.35836 -0.14842 0.92171
vn 0.51715 -0.21421 0.82866
vn 0.85437 -0.35389 -0.38054
vn 0.76991 -0.3189 -0.55276
vn 0.65609 -0.27175 0.70406
vn 0.65609 -0.27175 -0.70406
vn 0.76991 -0.3189 0.55276
vn 0.51715 -0.21421 -0.82866
vn 0.85437 -0.35389 0.38054
vn 0.35836 -0.14842 -0.92171
vn 0.90635 -0.37541 0.19392
vn 0.92388 -0.38268 0
vn 0.90635 -0.37541 -0.19392
vn 0.76892 -0.51376 0.38054
vn 0.81569 -0.54502 0.19392
vn 0.3225 -0.2155 -0.92171
vn 0.83147 -0.55557 0
vn 0.81569 -0.54502 -0.19392
vn 0.3225 -0.2155 0.92171
vn 0.76892 -0.51376 -0.38054
vn 0.46542 -0.31099 0.82866
vn 0.6929 -0.46297 -0.55276
vn 0.59046 -0.39453 0.70406
vn 0.59046 -0.39453 -0.70406
vn 0.6929 -0.46297 0.55276
vn 0.46542 -0.31099 -0.82866
vn 0.65391 -0.65391 -0.38054
vn 0.58926 -0.58926 -0.55276
vn 0.3958 -0.3958 0.82866
vn 0.50214 -0.50214 0.70406
vn 0.50214 -0.50214 -0.70406
vn 0.58926 -0.58926 0.55276
vn 0.3958 -0.3958 -0.82866
vn 0.65391 -0.65391 0.38054
vn 0.27428 -0.27428 -0.92171
vn 0.69368 -0.69368 0.19392
vn 0.70711 -0.70711 0
vn 0.69368 -0.69368 -0.19392
vn 0.27428 -0.27428 0.92171
vn 0.2155 -0.3225 -0.92171
vn 0.54502 -0.81569 0.19392
vn 0.55557 -0.83147 0
vn 0.54502 -0.81569 -0.19392
vn 0.2155 -0.3225 0.92171
vn 0.51376 -0.76892 -0.38054
vn 0.31099 -0.46542 0.82866
vn 0.46297 -0.6929 -0.55276
vn 0.39453 -0.59046 0.70406
vn 0.39453 -0.59046 -0.70406
vn 0.46297 -0.6929 0.55276
vn 0.31099 -0.46542 -0.82866
vn 0.51376 -0.76892 0.38054
vn 0.21421 -0.51715 0.82866
vn 0.27175 -0.65609 0.70406
vn 0.3189 -0.76991 -0.55276
vn 0.27175 -0.65609 -0.70406
vn 0.3189 -0.76991 0.55276
vn 0.21421 -0.51715 -0.82866
vn 0.35387 -0.85438 0.38054
vn 0.14842 -0.35836 -0.92171
vn 0.37541 -0.90635 0.19392
vn 0.38268 -0.92388 0
vn 0.37541 -0.90635 -0.19392
vn 0.14842 -0.35836 0.92171
vn 0.35387 -0.85438 -0.38054
vn 0.19138 -0.96217 0.19392
vn 0.19508 -0.98079 0
vn 0.19138 -0.96217 -0.19392
vn 0.07566 -0.38042 0.92171
vn 0.1804 -0.907 -0.38054
vn 0.1092 -0.54901 0.82865
vn 0.16257 -0.81733 -0.55276
vn 0.13853 -0.69651 0.70405
vn 0.13853 -0.69651 -0.70405
vn 0.16257 -0.81733 0.55276
vn 0.1092 -0.54901 -0.82865
vn 0.1804 -0.907 0.38054
vn 0.07566 -0.38042 -0.92171
vn 0 -0.83334 -0.55275
vn 0 -0.71015 -0.70405
vn 0 -0.71015 0.70405
vn 0 -0.83334 0.55275
vn 0 -0.55977 -0.82864
vn 0 -0.92476 0.38054
vn 0 -0.38787 -0.92171
vn 0 -0.98102 0.19392
vn 0 -1 0
vn 0 -0.98102 -0.19392
vn 0 -0.38787 0.92171
vn 0 -0.92476 -0.38054
vn 0 -0.55977 0.82864
vn -0.19508 -0.98079 0
vn -0.19138 -0.96217 -0.19392
vn -0.07566 -0.38042 0.92171
vn -0.1804 -0.907 -0.38054
vn -0.1092 -0.54901 0.82865
vn -0.16257 -0.81733 -0.55276
vn -0.13853 -0.69651 0.70405
vn -0.13853 -0.69651 -0.70405
vn -0.16257 -0.81733 0.55276
vn -0.1092 -0.54901 -0.82865
vn -0.1804 -0.907 0.38054
vn -0.07566 -0.38042 -0.92171
vn -0.19138 -0.96217 0.19392
vn -0.27175 -0.65609 -0.70406
vn -0.21421 -0.51715 -0.82866
vn -0.3189 -0.76991 0.55276
vn -0.35387 -0.85438 0.38054
vn -0.14842 -0.35836 -0.92171
vn -0.37541 -0.90635 0.19392
vn -0.38268 -0.92388 0
vn -0.37541 -0.90635 -0.19392
vn -0.14842 -0.35836 0.92171
vn -0.35387 -0.85438 -0.38054
vn -0.21421 -0.51715 0.82866
vn -0.3189 -0.76991 -0.55276
vn -0.27175 -0.65609 0.70406
vn -0.2155 -0.3225 0.92171
vn -0.54502 -0.81569 -0.19392
vn -0.51376 -0.76892 -0.38054
vn -0.31099 -0.46542 0.82866
vn -0.46297 -0.6929 -0.55276
vn -0.39453 -0.59046 0.70406
vn -0.39453 -0.59046 -0.70406
vn -0.46297 -0.6929 0.55276
vn -0.31099 -0.46542 -0.82866
vn -0.51376 -0.76892 0.38054
vn -0.2155 -0.3225 -0.92171
vn -0.54502 -0.81569 0.19392
vn -0.55557 -0.83147 0
vn -0.58926 -0.58926 0.55276
vn -0.65391 -0.65391 0.38054
vn -0.3958 -0.3958 -0.82866
vn -0.27428 -0.27428 -0.92171
vn -0.69368 -0.69368 0.19392
vn -0.70711 -0.70711 0
vn -0.69368 -0.69368 -0.19392
vn -0.27428 -0.27428 0.92171
vn -0.65391 -0.65391 -0.38054
vn -0.3958 -0.3958 0.82866
vn -0.58926 -0.58926 -0.55276
vn -0.50214 -0.50214 0.70406
vn -0.50214 -0.50214 -0.70406
vn -0.81569 -0.54502 -0.19392
vn -0.76892 -0.51376 -0.38054
vn -0.3225 -0.2155 0.92171
vn -0.46542 -0.31099 0.82866
vn -0.6929 -0.46297 -0.55276
vn -0.59046 -0.39453 0.70406
vn -0.59046 -0.39453 -0.70406
vn -0.6929 -0.46297 0.55276
vn -0.46542 -0.31099 -0.82866
vn -0.76892 -0.51376 0.38054
vn -0.3225 -0.2155 -0.92171
vn -0.81569 -0.54502 0.19392
vn -0.83147 -0.55557 0
vn -0.51715 -0.21421 -0.82866
vn -0.35836 -0.14842 -0.92171
vn -0.85438 -0.35387 0.38054
vn -0.90635 -0.37541 0.19392
vn -0.92388 -0.38268 0
vn -0.90635 -0.37541 -0.19392
vn -0.35836 -0.14842 0.92171
vn -0.85438 -0.35387 -0.38054
vn -0.51715 -0.21421 0.82866
vn -0.76991 -0.3189 -0.55276
vn -0.65609 -0.27175 0.70406
vn -0.65609 -0.27175 -0.70406
vn -0.76991 -0.3189 0.55276
vn -0.38042 -0.07566 0.92171
vn -0.54901 -0.1092 0.82865
vn -0.907 -0.1804 -0.38054
vn -0.81733 -0.16257 -0.55276
vn -0.69651 -0.13853 0.70405
vn -0.69651 -0.13853 -0.70405
vn -0.81733 -0.16257 0.55276
vn -0.54901 -0.1092 -0.82865
vn -0.907 -0.1804 0.38054
vn -0.38042 -0.07566 -0.92171
vn -0.96217 -0.19138 0.19392
vn -0.98079 -0.19508 0
vn -0.96217 -0.19138 -0.19392
vn -0.92476 0 0.38054
vn -0.98102 0 0.19392
vn -0.38787 0 -0.92171
vn -1 0 0
vn -0.98102 0 -0.19392
vn -0.38787 0 0.92171
vn -0.92476 0 -0.38054
vn -0.55977 0 0.82864
vn -0.83334 0 -0.55275
vn -0.71015 0 0.70405
vn -0.71015 0 -0.70405
vn -0.83334 0 0.55275
vn -0.55977 0 -0.82864
vn -0.907 0.1804 -0.38054
vn -0.81733 0.16257 -0.55276
vn -0.54901 0.1092 0.82865
vn -0.69651 0.13853 0.70405
vn -0.69651 0.13853 -0.70405
vn -0.81733 0.16257 0.55276
vn -0.54901 0.1092 -0.82865
vn -0.907 0.1804 0.38054
vn -0.38042 0.07566 -0.92171
vn -0.96217 0.19138 0.19392
vn -0.98079 0.19508 0
vn -0.96217 0.19138 -0.19392
vn -0.38042 0.07566 0.92171
vn -0.35836 0.14842 -0.92171
vn -0.90635 0.37541 0.19392
vn -0.92388 0.38268 0
vn -0.90635 0.37541 -0.19392
vn -0.35836 0.14842 0.92171
vn -0.85437 0.35389 -0.38054
vn -0.51715 0.21421 0.82866
vn -0.76991 0.3189 -0.55276
vn -0.65609 0.27175 0.70406
vn -0.65609 0.27175 -0.70406
vn -0.76991 0.3189 0.55276
vn -0.51715 0.21421 -0.82866
vn -0.85437 0.35389 0.38054
vn -0.6929 0.46297 -0.55276
vn -0.59046 0.39453 -0.70406
vn -0.59046 0.39453 0.70406
vn -0.6929 0.46297 0.55276
vn -0.46542 0.31099 -0.82866
vn -0.76892 0.51376 0.38054
vn -0.3225 0.2155 -0.92171
vn -0.81569 0.54502 0.19392
vn -0.83147 0.55557 0
vn -0.81569 0.54502 -0.19392
vn -0.3225 0.2155 0.92171
vn -0.76892 0.51376 -0.38054
vn -0.46542 0.31099 0.82866
vn -0.70711 0.70711 0
vn -0.69368 0.69368 -0.19392
vn -0.27428 0.27428 0.92171
vn -0.65391 0.65391 -0.38054
vn -0.3958 0.3958 0.82866
vn -0.58926 0.58926 -0.55276
vn -0.50214 0.50214 0.70406
vn -0.50214 0.50214 -0.70406
vn -0.58926 0.58926 0.55276
vn -0.3958 0.3958 -0.82866
vn -0.65391 0.65391 0.38054
vn -0.27428 0.27428 -0.92171
vn -0.69368 0.69368 0.19392
vn -0.39453 0.59046 0.70406
vn -0.46297 0.6929 0.55276
vn -0.39453 0.59046 -0.70406
vn -0.31099 0.46542 -0.82866
vn -0.51376 0.76892 0.38054
vn -0.2155 0.3225 -0.92171
vn -0.54502 0.81569 0.19392
vn -0.55557 0.83147 0
vn -0.54502 0.81569 -0.19392
vn -0.2155 0.3225 0.92171
vn -0.51376 0.76892 -0.38054
vn -0.31099 0.46542 0.82866
vn -0.46297 0.6929 -0.55276
vn -0.38268 0.92388 0
vn -0.37541 0.90635 -0.19392
vn -0.14842 0.35836 0.92171
vn -0.35387 0.85438 -0.38054
vn -0.21421 0.51715 0.82866
vn -0.3189 0.76991 -0.55276
vn -0.27175 0.65609 0.70406
vn -0.27175 0.65609 -0.70406
vn -0.3189 0.76991 0.55276
vn -0.21421 0.51715 -0.82866
vn -0.35387 0.85438 0.38054
vn -0.14842 0.35836 -0.92171
vn -0.37541 0.90635 0.19392
vn -0.13853 0.69651 -0.70405
vn -0.1092 0.54901 -0.82865
vn -0.16257 0.81733 0.55276
vn -0.1804 0.907 0.38054
vn -0.07566 0.38042 -0.92171
vn -0.19138 0.96217 0.19392
vn -0.19508 0.98079 0
vn -0.19138 0.96217 -0.19392
vn -0.07566 0.38042 0.92171
vn -0.1804 0.907 -0.38054
vn -0.1092 0.54901 0.82865
vn -0.16257 0.81733 -0.55276
vn -0.13853 0.69651 0.70405
vt 0.75 0.0625
vt 0.73438 0
vt 0.71875 0.0625
vt 0.73437 1
vt 0.75 0.9375
vt 0.71875 0.9375
vt 0.70312 0
vt 0.6875 0.0625
vt 0.70312 1
vt 0.6875 0.9375
vt 0.67187 0
vt 0.65625 0.0625
vt 0.67187 1
vt 0.65625 0.9375
vt 0.64062 0
vt 0.625 0.0625
vt 0.64062 1
vt 0.625 0.9375
vt 0.60937 0
vt 0.59375 0.0625
vt 0.60937 1
vt 0.59375 0.9375
vt 0.57812 0
vt 0.5625 0.0625
vt 0.57812 1
vt 0.5625 0.9375
vt 0.54687 0
vt 0.53125 0.0625
vt 0.54687 1
vt 0.53125 0.9375
vt 0.51562 0
vt 0.5 0.0625
vt 0.51562 1
vt 0.5 0.9375
vt 0.48437 0
vt 0.46875 0.0625
vt 0.48437 1
vt 0.46875 0.9375
vt 0.45312 0
vt 0.4375 0.0625
vt 0.45312 1
vt 0.4375 0.9375
vt 0.42187 0
vt 0.40625 0.0625
vt 0.42187 1
vt 0.40625 0.9375
vt 0.39062 0
vt 0.375 0.0625
vt 0.39062 1
vt 0.375 0.9375
vt 0.35937 0
vt 0.34375 0.0625
vt 0.35937 1
vt 0.34375 0.9375
vt 0.32812 0
vt 0.3125 0.0625
vt 0.32812 1
vt 0.3125 0.9375
vt 0.29687 0
vt 0.28125 0.0625
vt 0.29687 1
vt 0.28125 0.9375
vt 0.26562 0
vt 0.25 0.0625
vt 0.26562 1
vt 0.25 0.9375
vt 0.23438 1
vt 0.21875 0.9375
vt 0.23437 0
vt 0.21875 0.0625
vt 0.20313 0
vt 0.1875 0.0625
vt 0.20313 1
vt 0.1875 0.9375
vt 0.17188 0
vt 0.15625 0.0625
vt 0.17188 1
vt 0.15625 0.9375
vt 0.14063 0
vt 0.125 0.0625
vt 0.14063 1
vt 0.125 0.9375
vt 0.10938 0
vt 0.09375 0.0625
vt 0.10938 1
vt 0.09375 0.9375
vt 0.07813 0
vt 0.0625 0.0625
vt 0.07813 1
vt 0.0625 0.9375
vt 0.04688 0
vt 0.03125 0.0625
vt 0.04688 1
vt 0.03125 0.9375
vt 0.01563 0
vt 0 0.0625
vt 0.01563 1
vt 0 0.9375
vt 1 0.0625
vt 0.98438 0
vt 0.96875 0.0625
vt 0.98438 1
vt 1 0.9375
vt 0.96875 0.9375
vt 0.95313 0
vt 0.9375 0.0625
vt 0.95313 1
vt 0.9375 0.9375
vt 0.92188 0
vt 0.90625 0.0625
vt 0.92188 1
vt 0.90625 0.9375
vt 0.89063 0
vt 0.875 0.0625
vt 0.89063 1
vt 0.875 0.9375
vt 0.85938 0
vt 0.84375 0.0625
vt 0.85938 1
vt 0.84375 0.9375
vt 0.82813 0
vt 0.8125 0.0625
vt 0.82813 1
vt 0.8125 0.9375
vt 0.79688 0
vt 0.78125 0.0625
vt 0.79688 1
vt 0.78125 0.9375
vt 0.76563 0
vt 0.76562 1
vt 0.75 0.5625
vt 0.75 0.5
vt 0.71875 0.5
vt 0.71875 0.5625
vt 0.75 0.125
vt 0.71875 0.125
vt 0.75 0.625
vt 0.71875 0.625
vt 0.75 0.1875
vt 0.71875 0.1875
vt 0.75 0.6875
vt 0.71875 0.6875
vt 0.75 0.25
vt 0.71875 0.25
vt 0.75 0.75
vt 0.71875 0.75
vt 0.75 0.3125
vt 0.71875 0.3125
vt 0.75 0.8125
vt 0.71875 0.8125
vt 0.75 0.375
vt 0.71875 0.375
vt 0.75 0.875
vt 0.71875 0.875
vt 0.75 0.4375
vt 0.71875 0.4375
vt 0.6875 0.4375
vt 0.6875 0.5
vt 0.6875 0.5625
vt 0.6875 0.125
vt 0.6875 0.625
vt 0.6875 0.1875
vt 0.6875 0.6875
vt 0.6875 0.25
vt 0.6875 0.75
vt 0.6875 0.3125
vt 0.6875 0.8125
vt 0.6875 0.375
vt 0.6875 0.875
vt 0.65625 0.6875
vt 0.65625 0.75
vt 0.65625 0.25
vt 0.65625 0.3125
vt 0.65625 0.8125
vt 0.65625 0.375
vt 0.65625 0.875
vt 0.65625 0.4375
vt 0.65625 0.5
vt 0.65625 0.5625
vt 0.65625 0.125
vt 0.65625 0.625
vt 0.65625 0.1875
vt 0.625 0.5
vt 0.625 0.5625
vt 0.625 0.125
vt 0.625 0.625
vt 0.625 0.1875
vt 0.625 0.6875
vt 0.625 0.25
vt 0.625 0.75
vt 0.625 0.3125
vt 0.625 0.8125
vt 0.625 0.375
vt 0.625 0.875
vt 0.625 0.4375
vt 0.59375 0.25
vt 0.59375 0.3125
vt 0.59375 0.75
vt 0.59375 0.8125
vt 0.59375 0.375
vt 0.59375 0.875
vt 0.59375 0.4375
vt 0.59375 0.5
vt 0.59375 0.5625
vt 0.59375 0.125
vt 0.59375 0.625
vt 0.59375 0.1875
vt 0.59375 0.6875
vt 0.5625 0.5
vt 0.5625 0.5625
vt 0.5625 0.125
vt 0.5625 0.625
vt 0.5625 0.1875
vt 0.5625 0.6875
vt 0.5625 0.25
vt 0.5625 0.75
vt 0.5625 0.3125
vt 0.5625 0.8125
vt 0.5625 0.375
vt 0.5625 0.875
vt 0.5625 0.4375
vt 0.53125 0.75
vt 0.53125 0.8125
vt 0.53125 0.3125
vt 0.53125 0.375
vt 0.53125 0.875
vt 0.53125 0.4375
vt 0.53125 0.5
vt 0.53125 0.5625
vt 0.53125 0.125
vt 0.53125 0.625
vt 0.53125 0.1875
vt 0.53125 0.6875
vt 0.53125 0.25
vt 0.5 0.5625
vt 0.5 0.625
vt 0.5 0.125
vt 0.5 0.1875
vt 0.5 0.6875
vt 0.5 0.25
vt 0.5 0.75
vt 0.5 0.3125
vt 0.5 0.8125
vt 0.5 0.375
vt 0.5 0.875
vt 0.5 0.4375
vt 0.5 0.5
vt 0.46875 0.8125
vt 0.46875 0.875
vt 0.46875 0.375
vt 0.46875 0.4375
vt 0.46875 0.5
vt 0.46875 0.5625
vt 0.46875 0.125
vt 0.46875 0.625
vt 0.46875 0.1875
vt 0.46875 0.6875
vt 0.46875 0.25
vt 0.46875 0.75
vt 0.46875 0.3125
vt 0.4375 0.125
vt 0.4375 0.1875
vt 0.4375 0.625
vt 0.4375 0.6875
vt 0.4375 0.25
vt 0.4375 0.75
vt 0.4375 0.3125
vt 0.4375 0.8125
vt 0.4375 0.375
vt 0.4375 0.875
vt 0.4375 0.4375
vt 0.4375 0.5
vt 0.4375 0.5625
vt 0.40625 0.375
vt 0.40625 0.4375
vt 0.40625 0.875
vt 0.40625 0.5
vt 0.40625 0.5625
vt 0.40625 0.125
vt 0.40625 0.625
vt 0.40625 0.1875
vt 0.40625 0.6875
vt 0.40625 0.25
vt 0.40625 0.75
vt 0.40625 0.3125
vt 0.40625 0.8125
vt 0.375 0.625
vt 0.375 0.6875
vt 0.375 0.1875
vt 0.375 0.25
vt 0.375 0.75
vt 0.375 0.3125
vt 0.375 0.8125
vt 0.375 0.375
vt 0.375 0.875
vt 0.375 0.4375
vt 0.375 0.5
vt 0.375 0.5625
vt 0.375 0.125
vt 0.34375 0.875
vt 0.34375 0.4375
vt 0.34375 0.5
vt 0.34375 0.5625
vt 0.34375 0.125
vt 0.34375 0.625
vt 0.34375 0.1875
vt 0.34375 0.6875
vt 0.34375 0.25
vt 0.34375 0.75
vt 0.34375 0.3125
vt 0.34375 0.8125
vt 0.34375 0.375
vt 0.3125 0.1875
vt 0.3125 0.25
vt 0.3125 0.6875
vt 0.3125 0.75
vt 0.3125 0.3125
vt 0.3125 0.8125
vt 0.3125 0.375
vt 0.3125 0.875
vt 0.3125 0.4375
vt 0.3125 0.5
vt 0.3125 0.5625
vt 0.3125 0.125
vt 0.3125 0.625
vt 0.28125 0.4375
vt 0.28125 0.5
vt 0.28125 0.5625
vt 0.28125 0.125
vt 0.28125 0.625
vt 0.28125 0.1875
vt 0.28125 0.6875
vt 0.28125 0.25
vt 0.28125 0.75
vt 0.28125 0.3125
vt 0.28125 0.8125
vt 0.28125 0.375
vt 0.28125 0.875
vt 0.25 0.6875
vt 0.25 0.75
vt 0.25 0.25
vt 0.25 0.3125
vt 0.25 0.8125
vt 0.25 0.375
vt 0.25 0.875
vt 0.25 0.4375
vt 0.25 0.5
vt 0.25 0.5625
vt 0.25 0.125
vt 0.25 0.625
vt 0.25 0.1875
vt 0.21875 0.5
vt 0.21875 0.5625
vt 0.21875 0.125
vt 0.21875 0.625
vt 0.21875 0.1875
vt 0.21875 0.6875
vt 0.21875 0.25
vt 0.21875 0.75
vt 0.21875 0.3125
vt 0.21875 0.8125
vt 0.21875 0.375
vt 0.21875 0.875
vt 0.21875 0.4375
vt 0.1875 0.75
vt 0.1875 0.8125
vt 0.1875 0.3125
vt 0.1875 0.375
vt 0.1875 0.875
vt 0.1875 0.4375
vt 0.1875 0.5
vt 0.1875 0.5625
vt 0.1875 0.125
vt 0.1875 0.625
vt 0.1875 0.1875
vt 0.1875 0.6875
vt 0.1875 0.25
vt 0.15625 0.125
vt 0.15625 0.5625
vt 0.15625 0.625
vt 0.15625 0.1875
vt 0.15625 0.6875
vt 0.15625 0.25
vt 0.15625 0.75
vt 0.15625 0.3125
vt 0.15625 0.8125
vt 0.15625 0.375
vt 0.15625 0.875
vt 0.15625 0.4375
vt 0.15625 0.5
vt 0.125 0.3125
vt 0.125 0.375
vt 0.125 0.8125
vt 0.125 0.875
vt 0.125 0.4375
vt 0.125 0.5
vt 0.125 0.5625
vt 0.125 0.125
vt 0.125 0.625
vt 0.125 0.1875
vt 0.125 0.6875
vt 0.125 0.25
vt 0.125 0.75
vt 0.09375 0.5625
vt 0.09375 0.625
vt 0.09375 0.125
vt 0.09375 0.1875
vt 0.09375 0.6875
vt 0.09375 0.25
vt 0.09375 0.75
vt 0.09375 0.3125
vt 0.09375 0.8125
vt 0.09375 0.375
vt 0.09375 0.875
vt 0.09375 0.4375
vt 0.09375 0.5
vt 0.0625 0.8125
vt 0.0625 0.875
vt 0.0625 0.375
vt 0.0625 0.4375
vt 0.0625 0.5
vt 0.0625 0.5625
vt 0.0625 0.125
vt 0.0625 0.625
vt 0.0625 0.1875
vt 0.0625 0.6875
vt 0.0625 0.25
vt 0.0625 0.75
vt 0.0625 0.3125
vt 0.03125 0.125
vt 0.03125 0.1875
vt 0.03125 0.625
vt 0.03125 0.6875
vt 0.03125 0.25
vt 0.03125 0.75
vt 0.03125 0.3125
vt 0.03125 0.8125
vt 0.03125 0.375
vt 0.03125 0.875
vt 0.03125 0.4375
vt 0.03125 0.5
vt 0.03125 0.5625
vt 0 0.375
vt 0 0.4375
vt 0 0.875
vt 0 0.5
vt 0 0.5625
vt 0 0.125
vt 0 0.625
vt 0 0.1875
vt 0 0.6875
vt 0 0.25
vt 0 0.75
vt 0 0.3125
vt 0 0.8125
vt 1 0.6875
vt 1 0.625
vt 0.96875 0.625
vt 0.96875 0.6875
vt 1 0.25
vt 1 0.1875
vt 0.96875 0.1875
vt 0.96875 0.25
vt 1 0.75
vt 0.96875 0.75
vt 1 0.3125
vt 0.96875 0.3125
vt 1 0.8125
vt 0.96875 0.8125
vt 1 0.375
vt 0.96875 0.375
vt 1 0.875
vt 0.96875 0.875
vt 1 0.4375
vt 0.96875 0.4375
vt 1 0.5
vt 0.96875 0.5
vt 1 0.5625
vt 0.96875 0.5625
vt 1 0.125
vt 0.96875 0.125
vt 0.9375 0.875
vt 0.9375 0.4375
vt 0.9375 0.5
vt 0.9375 0.5625
vt 0.9375 0.125
vt 0.9375 0.625
vt 0.9375 0.1875
vt 0.9375 0.6875
vt 0.9375 0.25
vt 0.9375 0.75
vt 0.9375 0.3125
vt 0.9375 0.8125
vt 0.9375 0.375
vt 0.90625 0.6875
vt 0.90625 0.75
vt 0.90625 0.25
vt 0.90625 0.3125
vt 0.90625 0.8125
vt 0.90625 0.375
vt 0.90625 0.875
vt 0.90625 0.4375
vt 0.90625 0.5
vt 0.90625 0.5625
vt 0.90625 0.125
vt 0.90625 0.625
vt 0.90625 0.1875
vt 0.875 0.5
vt 0.875 0.5625
vt 0.875 0.125
vt 0.875 0.625
vt 0.875 0.1875
vt 0.875 0.6875
vt 0.875 0.25
vt 0.875 0.75
vt 0.875 0.3125
vt 0.875 0.8125
vt 0.875 0.375
vt 0.875 0.875
vt 0.875 0.4375
vt 0.84375 0.25
vt 0.84375 0.3125
vt 0.84375 0.75
vt 0.84375 0.8125
vt 0.84375 0.375
vt 0.84375 0.875
vt 0.84375 0.4375
vt 0.84375 0.5
vt 0.84375 0.5625
vt 0.84375 0.125
vt 0.84375 0.625
vt 0.84375 0.1875
vt 0.84375 0.6875
vt 0.8125 0.5
vt 0.8125 0.5625
vt 0.8125 0.125
vt 0.8125 0.625
vt 0.8125 0.1875
vt 0.8125 0.6875
vt 0.8125 0.25
vt 0.8125 0.75
vt 0.8125 0.3125
vt 0.8125 0.8125
vt 0.8125 0.375
vt 0.8125 0.875
vt 0.8125 0.4375
vt 0.78125 0.75
vt 0.78125 0.8125
vt 0.78125 0.3125
vt 0.78125 0.375
vt 0.78125 0.875
vt 0.78125 0.4375
vt 0.78125 0.5
vt 0.78125 0.5625
vt 0.78125 0.125
vt 0.78125 0.625
vt 0.78125 0.1875
vt 0.78125 0.6875
vt 0.78125 0.25
usemtl mat0
f 1/1/1 2/2/2 3/3/3
f 4/4/4 5/5/5 6/6/6
f 3/3/3 7/7/2 8/8/7
f 9/9/4 6/6/6 10/10/8
f 8/8/7 11/11/2 12/12/9
f 13/13/4 10/10/8 14/14/10
f 12/12/9 15/15/2 16/16/11
f 17/17/4 14/14/10 18/18/12
f 16/16/11 19/19/2 20/20/13
f 21/21/4 18/18/12 22/22/14
f 20/20/13 23/23/2 24/24/15
f 25/25/4 22/22/14 26/26/16
f 24/24/15 27/27/2 28/28/17
f 29/29/4 26/26/16 30/30/18
f 28/28/17 31/31/2 32/32/19
f 33/33/4 30/30/18 34/34/20
f 32/32/19 35/35/2 36/36/21
f 37/37/4 34/34/20 38/38/22
f 36/36/21 39/39/2 40/40/23
f 41/41/4 38/38/22 42/42/24
f 40/40/23 43/43/2 44/44/25
f 45/45/4 42/42/24 46/46/26
f 44/44/25 47/47/2 48/48/27
f 49/49/4 46/46/26 50/50/28
f 48/48/27 51/51/2 52/52/29
f 53/53/4 50/50/28 54/54/30
f 52/52/29 55/55/2 56/56/31
f 57/57/4 54/54/30 58/58/32
f 56/56/31 59/59/2 60/60/33
f 61/61/4 58/58/32 62/62/34
f 60/60/33 63/63/2 64/64/35
f 65/65/4 62/62/34 66/66/36
f 67/67/4 66/66/36 68/68/37
f 64/64/35 69/69/2 70/70/38
f 70/70/38 71/71/2 72/72/39
f 73/73/4 68/68/37 74/74/40
f 72/72/39 75/75/2 76/76/41
f 77/77/4 74/74/40 78/78/42
f 76/76/41 79/79/2 80/80/43
f 81/81/4 78/78/42 82/82/44
f 80/80/43 83/83/2 84/84/45
f 85/85/4 82/82/44 86/86/46
f 84/84/45 87/87/2 88/88/47
f 89/89/4 86/86/46 90/90/48
f 88/88/47 91/91/2 92/92/49
f 93/93/4 90/90/48 94/94/50
f 92/92/49 95/95/2 96/96/51
f 97/97/4 94/94/50 98/98/52
f 99/99/51 100/100/2 101/101/53
f 102/102/4 103/103/52 104/104/54
f 101/101/53 105/105/2 106/106/55
f 107/107/4 104/104/54 108/108/56
f 106/106/55 109/109/2 110/110/57
f 111/111/4 108/108/56 112/112/58
f 110/110/57 113/113/2 114/114/59
f 115/115/4 112/112/58 116/116/60
f 114/114/59 117/117/2 118/118/61
f 119/119/4 116/116/60 120/120/62
f 118/118/61 121/121/2 122/122/63
f 123/123/4 120/120/62 124/124/64
f 122/122/63 125/125/2 126/126/65
f 127/127/4 124/124/64 128/128/66
f 126/126/65 129/129/2 1/1/1
f 130/130/4 128/128/66 5/5/5
f 131/131/67 132/132/68 133/133/69
f 131/131/67 133/133/69 134/134/70
f 135/135/71 1/1/1 3/3/3
f 135/135/71 3/3/3 136/136/72
f 137/137/73 131/131/67 134/134/70
f 137/137/73 134/134/70 138/138/74
f 139/139/75 135/135/71 136/136/72
f 139/139/75 136/136/72 140/140/76
f 141/141/77 137/137/73 138/138/74
f 141/141/77 138/138/74 142/142/78
f 143/143/79 139/139/75 140/140/76
f 143/143/79 140/140/76 144/144/80
f 145/145/81 141/141/77 142/142/78
f 145/145/81 142/142/78 146/146/82
f 147/147/83 143/143/79 144/144/80
f 147/147/83 144/144/80 148/148/84
f 149/149/85 145/145/81 146/146/82
f 149/149/85 146/146/82 150/150/86
f 151/151/87 147/147/83 148/148/84
f 151/151/87 148/148/84 152/152/88
f 153/153/89 149/149/85 150/150/86
f 153/153/89 150/150/86 154/154/90
f 155/155/91 151/151/87 152/152/88
f 155/155/91 152/152/88 156/156/92
f 5/5/5 153/153/89 154/154/90
f 5/5/5 154/154/90 6/6/6
f 132/132/68 155/155/91 156/156/92
f 132/132/68 156/156/92 133/133/69
f 133/133/69 156/156/92 157/157/93
f 133/133/69 157/157/93 158/158/94
f 134/134/70 133/133/69 158/158/94
f 134/134/70 158/158/94 159/159/95
f 136/136/72 3/3/3 8/8/7
f 136/136/72 8/8/7 160/160/96
f 138/138/74 134/134/70 159/159/95
f 138/138/74 159/159/95 161/161/97
f 140/140/76 136/136/72 160/160/96
f 140/140/76 160/160/96 162/162/98
f 142/142/78 138/138/74 161/161/97
f 142/142/78 161/161/97 163/163/99
f 144/144/80 140/140/76 162/162/98
f 144/144/80 162/162/98 164/164/100
f 146/146/82 142/142/78 163/163/99
f 146/146/82 163/163/99 165/165/101
f 148/148/84 144/144/80 164/164/100
f 148/148/84 164/164/100 166/166/102
f 150/150/86 146/146/82 165/165/101
f 150/150/86 165/165/101 167/167/103
f 152/152/88 148/148/84 166/166/102
f 152/152/88 166/166/102 168/168/104
f 154/154/90 150/150/86 167/167/103
f 154/154/90 167/167/103 169/169/105
f 156/156/92 152/152/88 168/168/104
f 156/156/92 168/168/104 157/157/93
f 6/6/6 154/154/90 169/169/105
f 6/6/6 169/169/105 10/10/8
f 165/165/101 163/163/99 170/170/106
f 165/165/101 170/170/106 171/171/107
f 166/166/102 164/164/100 172/172/108
f 166/166/102 172/172/108 173/173/109
f 167/167/103 165/165/101 171/171/107
f 167/167/103 171/171/107 174/174/110
f 168/168/104 166/166/102 173/173/109
f 168/168/104 173/173/109 175/175/111
f 169/169/105 167/167/103 174/174/110
f 169/169/105 174/174/110 176/176/112
f 157/157/93 168/168/104 175/175/111
f 157/157/93 175/175/111 177/177/113
f 10/10/8 169/169/105 176/176/112
f 10/10/8 176/176/112 14/14/10
f 158/158/94 157/157/93 177/177/113
f 158/158/94 177/177/113 178/178/114
f 159/159/95 158/158/94 178/178/114
f 159/159/95 178/178/114 179/179/115
f 160/160/96 8/8/7 12/12/9
f 160/160/96 12/12/9 180/180/116
f 161/161/97 159/159/95 179/179/115
f 161/161/97 179/179/115 181/181/117
f 162/162/98 160/160/96 180/180/116
f 162/162/98 180/180/116 182/182/118
f 163/163/99 161/161/97 181/181/117
f 163/163/99 181/181/117 170/170/106
f 164/164/100 162/162/98 182/182/118
f 164/164/100 182/182/118 172/172/108
f 179/179/115 178/178/114 183/183/119
f 179/179/115 183/183/119 184/184/120
f 180/180/116 12/12/9 16/16/11
f 180/180/116 16/16/11 185/185/121
f 181/181/117 179/179/115 184/184/120
f 181/181/117 184/184/120 186/186/122
f 182/182/118 180/180/116 185/185/121
f 182/182/118 185/185/121 187/187/123
f 170/170/106 181/181/117 186/186/122
f 170/170/106 186/186/122 188/188/124
f 172/172/108 182/182/118 187/187/123
f 172/172/108 187/187/123 189/189/125
f 171/171/107 170/170/106 188/188/124
f 171/171/107 188/188/124 190/190/126
f 173/173/109 172/172/108 189/189/125
f 173/173/109 189/189/125 191/191/127
f 174/174/110 171/171/107 190/190/126
f 174/174/110 190/190/126 192/192/128
f 175/175/111 173/173/109 191/191/127
f 175/175/111 191/191/127 193/193/129
f 176/176/112 174/174/110 192/192/128
f 176/176/112 192/192/128 194/194/130
f 177/177/113 175/175/111 193/193/129
f 177/177/113 193/193/129 195/195/131
f 14/14/10 176/176/112 194/194/130
f 14/14/10 194/194/130 18/18/12
f 178/178/114 177/177/113 195/195/131
f 178/178/114 195/195/131 183/183/119
f 191/191/127 189/189/125 196/196/132
f 191/191/127 196/196/132 197/197/133
f 192/192/128 190/190/126 198/198/134
f 192/192/128 198/198/134 199/199/135
f 193/193/129 191/191/127 197/197/133
f 193/193/129 197/197/133 200/200/136
f 194/194/130 192/192/128 199/199/135
f 194/194/130 199/199/135 201/201/137
f 195/195/131 193/193/129 200/200/136
f 195/195/131 200/200/136 202/202/138
f 18/18/12 194/194/130 201/201/137
f 18/18/12 201/201/137 22/22/14
f 183/183/119 195/195/131 202/202/138
f 183/183/119 202/202/138 203/203/139
f 184/184/120 183/183/119 203/203/139
f 184/184/120 203/203/139 204/204/140
f 185/185/121 16/16/11 20/20/13
f 185/185/121 20/20/13 205/205/141
f 186/186/122 184/184/120 204/204/140
f 186/186/122 204/204/140 206/206/142
f 187/187/123 185/185/121 205/205/141
f 187/187/123 205/205/141 207/207/143
f 188/188/124 186/186/122 206/206/142
f 188/188/124 206/206/142 208/208/144
f 189/189/125 187/187/123 207/207/143
f 189/189/125 207/207/143 196/196/132
f 190/190/126 188/188/124 208/208/144
f 190/190/126 208/208/144 198/198/134
f 204/204/140 203/203/139 209/209/145
f 204/204/140 209/209/145 210/210/146
f 205/205/141 20/20/13 24/24/15
f 205/205/141 24/24/15 211/211/147
f 206/206/142 204/204/140 210/210/146
f 206/206/142 210/210/146 212/212/148
f 207/207/143 205/205/141 211/211/147
f 207/207/143 211/211/147 213/213/149
f 208/208/144 206/206/142 212/212/148
f 208/208/144 212/212/148 214/214/150
f 196/196/132 207/207/143 213/213/149
f 196/196/132 213/213/149 215/215/151
f 198/198/134 208/208/144 214/214/150
f 198/198/134 214/214/150 216/216/152
f 197/197/133 196/196/132 215/215/151
f 197/197/133 215/215/151 217/217/153
f 199/199/135 198/198/134 216/216/152
f 199/199/135 216/216/152 218/218/154
f 200/200/136 197/197/133 217/217/153
f 200/200/136 217/217/153 219/219/155
f 201/201/137 199/199/135 218/218/154
f 201/201/137 218/218/154 220/220/156
f 202/202/138 200/200/136 219/219/155
f 202/202/138 219/219/155 221/221/157
f 22/22/14 201/201/137 220/220/156
f 22/22/14 220/220/156 26/26/16
f 203/203/139 202/202/138 221/221/157
f 203/203/139 221/221/157 209/209/145
f 218/218/154 216/216/152 222/222/158
f 218/218/154 222/222/158 223/223/159
f 219/219/155 217/217/153 224/224/160
f 219/219/155 224/224/160 225/225/161
f 220/220/156 218/218/154 223/223/159
f 220/220/156 223/223/159 226/226/162
f 221/221/157 219/219/155 225/225/161
f 221/221/157 225/225/161 227/227/163
f 26/26/16 220/220/156 226/226/162
f 26/26/16 226/226/162 30/30/18
f 209/209/145 221/221/157 227/227/163
f 209/209/145 227/227/163 228/228/164
f 210/210/146 209/209/145 228/228/164
f 210/210/146 228/228/164 229/229/165
f 211/211/147 24/24/15 28/28/17
f 211/211/147 28/28/17 230/230/166
f 212/212/148 210/210/146 229/229/165
f 212/212/148 229/229/165 231/231/167
f 213/213/149 211/211/147 230/230/166
f 213/213/149 230/230/166 232/232/168
f 214/214/150 212/212/148 231/231/167
f 214/214/150 231/231/167 233/233/169
f 215/215/151 213/213/149 232/232/168
f 215/215/151 232/232/168 234/234/170
f 216/216/152 214/214/150 233/233/169
f 216/216/152 233/233/169 222/222/158
f 217/217/153 215/215/151 234/234/170
f 217/217/153 234/234/170 224/224/160
f 231/231/167 229/229/165 235/235/171
f 231/231/167 235/235/171 236/236/172
f 232/232/168 230/230/166 237/237/173
f 232/232/168 237/237/173 238/238/174
f 233/233/169 231/231/167 236/236/172
f 233/233/169 236/236/172 239/239/175
f 234/234/170 232/232/168 238/238/174
f 234/234/170 238/238/174 240/240/176
f 222/222/158 233/233/169 239/239/175
f 222/222/158 239/239/175 241/241/177
f 224/224/160 234/234/170 240/240/176
f 224/224/160 240/240/176 242/242/178
f 223/223/159 222/222/158 241/241/177
f 223/223/159 241/241/177 243/243/179
f 225/225/161 224/224/160 242/242/178
f 225/225/161 242/242/178 244/244/180
f 226/226/162 223/223/159 243/243/179
f 226/226/162 243/243/179 245/245/181
f 227/227/163 225/225/161 244/244/180
f 227/227/163 244/244/180 246/246/182
f 30/30/18 226/226/162 245/245/181
f 30/30/18 245/245/181 34/34/20
f 228/228/164 227/227/163 246/246/182
f 228/228/164 246/246/182 247/247/183
f 229/229/165 228/228/164 247/247/183
f 229/229/165 247/247/183 235/235/171
f 230/230/166 28/28/17 32/32/19
f 230/230/166 32/32/19 237/237/173
f 245/245/181 243/243/179 248/248/184
f 245/245/181 248/248/184 249/249/185
f 246/246/182 244/244/180 250/250/186
f 246/246/182 250/250/186 251/251/187
f 34/34/20 245/245/181 249/249/185
f 34/34/20 249/249/185 38/38/22
f 247/247/183 246/246/182 251/251/187
f 247/247/183 251/251/187 252/252/188
f 235/235/171 247/247/183 252/252/188
f 235/235/171 252/252/188 253/253/189
f 237/237/173 32/32/19 36/36/21
f 237/237/173 36/36/21 254/254/190
f 236/236/172 235/235/171 253/253/189
f 236/236/172 253/253/189 255/255/191
f 238/238/174 237/237/173 254/254/190
f 238/238/174 254/254/190 256/256/192
f 239/239/175 236/236/172 255/255/191
f 239/239/175 255/255/191 257/257/193
f 240/240/176 238/238/174 256/256/192
f 240/240/176 256/256/192 258/258/194
f 241/241/177 239/239/175 257/257/193
f 241/241/177 257/257/193 259/259/195
f 242/242/178 240/240/176 258/258/194
f 242/242/178 258/258/194 260/260/196
f 243/243/179 241/241/177 259/259/195
f 243/243/179 259/259/195 248/248/184
f 244/244/180 242/242/178 260/260/196
f 244/244/180 260/260/196 250/250/186
f 256/256/192 254/254/190 261/261/197
f 256/256/192 261/261/197 262/262/198
f 257/257/193 255/255/191 263/263/199
f 257/257/193 263/263/199 264/264/200
f 258/258/194 256/256/192 262/262/198
f 258/258/194 262/262/198 265/265/201
f 259/259/195 257/257/193 264/264/200
f 259/259/195 264/264/200 266/266/202
f 260/260/196 258/258/194 265/265/201
f 260/260/196 265/265/201 267/267/203
f 248/248/184 259/259/195 266/266/202
f 248/248/184 266/266/202 268/268/204
f 250/250/186 260/260/196 267/267/203
f 250/250/186 267/267/203 269/269/205
f 249/249/185 248/248/184 268/268/204
f 249/249/185 268/268/204 270/270/206
f 251/251/187 250/250/186 269/269/205
f 251/251/187 269/269/205 271/271/207
f 38/38/22 249/249/185 270/270/206
f 38/38/22 270/270/206 42/42/24
f 252/252/188 251/251/187 271/271/207
f 252/252/188 271/271/207 272/272/208
f 253/253/189 252/252/188 272/272/208
f 253/253/189 272/272/208 273/273/209
f 254/254/190 36/36/21 40/40/23
f 254/254/190 40/40/23 261/261/197
f 255/255/191 253/253/189 273/273/209
f 255/255/191 273/273/209 263/263/199
f 271/271/207 269/269/205 274/274/210
f 271/271/207 274/274/210 275/275/211
f 42/42/24 270/270/206 276/276/212
f 42/42/24 276/276/212 46/46/26
f 272/272/208 271/271/207 275/275/211
f 272/272/208 275/275/211 277/277/213
f 273/273/209 272/272/208 277/277/213
f 273/273/209 277/277/213 278/278/214
f 261/261/197 40/40/23 44/44/25
f 261/261/197 44/44/25 279/279/215
f 263/263/199 273/273/209 278/278/214
f 263/263/199 278/278/214 280/280/216
f 262/262/198 261/261/197 279/279/215
f 262/262/198 279/279/215 281/281/217
f 264/264/200 263/263/199 280/280/216
f 264/264/200 280/280/216 282/282/218
f 265/265/201 262/262/198 281/281/217
f 265/265/201 281/281/217 283/283/219
f 266/266/202 264/264/200 282/282/218
f 266/266/202 282/282/218 284/284/220
f 267/267/203 265/265/201 283/283/219
f 267/267/203 283/283/219 285/285/221
f 268/268/204 266/266/202 284/284/220
f 268/268/204 284/284/220 286/286/222
f 269/269/205 267/267/203 285/285/221
f 269/269/205 285/285/221 274/274/210
f 270/270/206 268/268/204 286/286/222
f 270/270/206 286/286/222 276/276/212
f 282/282/218 280/280/216 287/287/223
f 282/282/218 287/287/223 288/288/224
f 283/283/219 281/281/217 289/289/225
f 283/283/219 289/289/225 290/290/226
f 284/284/220 282/282/218 288/288/224
f 284/284/220 288/288/224 291/291/227
f 285/285/221 283/283/219 290/290/226
f 285/285/221 290/290/226 292/292/228
f 286/286/222 284/284/220 291/291/227
f 286/286/222 291/291/227 293/293/229
f 274/274/210 285/285/221 292/292/228
f 274/274/210 292/292/228 294/294/230
f 276/276/212 286/286/222 293/293/229
f 276/276/212 293/293/229 295/295/231
f 275/275/211 274/274/210 294/294/230
f 275/275/211 294/294/230 296/296/232
f 46/46/26 276/276/212 295/295/231
f 46/46/26 295/295/231 50/50/28
f 277/277/213 275/275/211 296/296/232
f 277/277/213 296/296/232 297/297/233
f 278/278/214 277/277/213 297/297/233
f 278/278/214 297/297/233 298/298/234
f 279/279/215 44/44/25 48/48/27
f 279/279/215 48/48/27 299/299/235
f 280/280/216 278/278/214 298/298/234
f 280/280/216 298/298/234 287/287/223
f 281/281/217 279/279/215 299/299/235
f 281/281/217 299/299/235 289/289/225
f 50/50/28 295/295/231 300/300/236
f 50/50/28 300/300/236 54/54/30
f 297/297/233 296/296/232 301/301/237
f 297/297/233 301/301/237 302/302/238
f 298/298/234 297/297/233 302/302/238
f 298/298/234 302/302/238 303/303/239
f 299/299/235 48/48/27 52/52/29
f 299/299/235 52/52/29 304/304/240
f 287/287/223 298/298/234 303/303/239
f 287/287/223 303/303/239 305/305/241
f 289/289/225 299/299/235 304/304/240
f 289/289/225 304/304/240 306/306/242
f 288/288/224 287/287/223 305/305/241
f 288/288/224 305/305/241 307/307/243
f 290/290/226 289/289/225 306/306/242
f 290/290/226 306/306/242 308/308/244
f 291/291/227 288/288/224 307/307/243
f 291/291/227 307/307/243 309/309/245
f 292/292/228 290/290/226 308/308/244
f 292/292/228 308/308/244 310/310/246
f 293/293/229 291/291/227 309/309/245
f 293/293/229 309/309/245 311/311/247
f 294/294/230 292/292/228 310/310/246
f 294/294/230 310/310/246 312/312/248
f 295/295/231 293/293/229 311/311/247
f 295/295/231 311/311/247 300/300/236
f 296/296/232 294/294/230 312/312/248
f 296/296/232 312/312/248 301/301/237
f 308/308/244 306/306/242 313/313/249
f 308/308/244 313/313/249 314/314/250
f 309/309/245 307/307/243 315/315/251
f 309/309/245 315/315/251 316/316/252
f 310/310/246 308/308/244 314/314/250
f 310/310/246 314/314/250 317/317/253
f 311/311/247 309/309/245 316/316/252
f 311/311/247 316/316/252 318/318/254
f 312/312/248 310/310/246 317/317/253
f 312/312/248 317/317/253 319/319/255
f 300/300/236 311/311/247 318/318/254
f 300/300/236 318/318/254 320/320/256
f 301/301/237 312/312/248 319/319/255
f 301/301/237 319/319/255 321/321/257
f 54/54/30 300/300/236 320/320/256
f 54/54/30 320/320/256 58/58/32
f 302/302/238 301/301/237 321/321/257
f 302/302/238 321/321/257 322/322/258
f 303/303/239 302/302/238 322/322/258
f 303/303/239 322/322/258 323/323/259
f 304/304/240 52/52/29 56/56/31
f 304/304/240 56/56/31 324/324/260
f 305/305/241 303/303/239 323/323/259
f 305/305/241 323/323/259 325/325/261
f 306/306/242 304/304/240 324/324/260
f 306/306/242 324/324/260 313/313/249
f 307/307/243 305/305/241 325/325/261
f 307/307/243 325/325/261 315/315/251
f 322/322/258 321/321/257 326/326/262
f 322/322/258 326/326/262 327/327/263
f 323/323/259 322/322/258 327/327/263
f 323/323/259 327/327/263 328/328/264
f 324/324/260 56/56/31 60/60/33
f 324/324/260 60/60/33 329/329/265
f 325/325/261 323/323/259 328/328/264
f 325/325/261 328/328/264 330/330/266
f 313/313/249 324/324/260 329/329/265
f 313/313/249 329/329/265 331/331/267
f 315/315/251 325/325/261 330/330/266
f 315/315/251 330/330/266 332/332/268
f 314/314/250 313/313/249 331/331/267
f 314/314/250 331/331/267 333/333/269
f 316/316/252 315/315/251 332/332/268
f 316/316/252 332/332/268 334/334/270
f 317/317/253 314/314/250 333/333/269
f 317/317/253 333/333/269 335/335/271
f 318/318/254 316/316/252 334/334/270
f 318/318/254 334/334/270 336/336/272
f 319/319/255 317/317/253 335/335/271
f 319/319/255 335/335/271 337/337/273
f 320/320/256 318/318/254 336/336/272
f 320/320/256 336/336/272 338/338/274
f 321/321/257 319/319/255 337/337/273
f 321/321/257 337/337/273 326/326/262
f 58/58/32 320/320/256 338/338/274
f 58/58/32 338/338/274 62/62/34
f 334/334/270 332/332/268 339/339/275
f 334/334/270 339/339/275 340/340/276
f 335/335/271 333/333/269 341/341/277
f 335/335/271 341/341/277 342/342/278
f 336/336/272 334/334/270 340/340/276
f 336/336/272 340/340/276 343/343/279
f 337/337/273 335/335/271 342/342/278
f 337/337/273 342/342/278 344/344/280
f 338/338/274 336/336/272 343/343/279
f 338/338/274 343/343/279 345/345/281
f 326/326/262 337/337/273 344/344/280
f 326/326/262 344/344/280 346/346/282
f 62/62/34 338/338/274 345/345/281
f 62/62/34 345/345/281 66/66/36
f 327/327/263 326/326/262 346/346/282
f 327/327/263 346/346/282 347/347/283
f 328/328/264 327/327/263 347/347/283
f 328/328/264 347/347/283 348/348/284
f 329/329/265 60/60/33 64/64/35
f 329/329/265 64/64/35 349/349/285
f 330/330/266 328/328/264 348/348/284
f 330/330/266 348/348/284 350/350/286
f 331/331/267 329/329/265 349/349/285
f 331/331/267 349/349/285 351/351/287
f 332/332/268 330/330/266 350/350/286
f 332/332/268 350/350/286 339/339/275
f 333/333/269 331/331/267 351/351/287
f 333/333/269 351/351/287 341/341/277
f 348/348/284 347/347/283 352/352/288
f 348/348/284 352/352/288 353/353/289
f 349/349/285 64/64/35 70/70/38
f 349/349/285 70/70/38 354/354/290
f 350/350/286 348/348/284 353/353/289
f 350/350/286 353/353/289 355/355/291
f 351/351/287 349/349/285 354/354/290
f 351/351/287 354/354/290 356/356/292
f 339/339/275 350/350/286 355/355/291
f 339/339/275 355/355/291 357/357/293
f 341/341/277 351/351/287 356/356/292
f 341/341/277 356/356/292 358/358/294
f 340/340/276 339/339/275 357/357/293
f 340/340/276 357/357/293 359/359/295
f 342/342/278 341/341/277 358/358/294
f 342/342/278 358/358/294 360/360/296
f 343/343/279 340/340/276 359/359/295
f 343/343/279 359/359/295 361/361/297
f 344/344/280 342/342/278 360/360/296
f 344/344/280 360/360/296 362/362/298
f 345/345/281 343/343/279 361/361/297
f 345/345/281 361/361/297 363/363/299
f 346/346/282 344/344/280 362/362/298
f 346/346/282 362/362/298 364/364/300
f 66/66/36 345/345/281 363/363/299
f 66/66/36 363/363/299 68/68/37
f 347/347/283 346/346/282 364/364/300
f 347/347/283 364/364/300 352/352/288
f 361/361/297 359/359/295 365/365/301
f 361/361/297 365/365/301 366/366/302
f 362/362/298 360/360/296 367/367/303
f 362/362/298 367/367/303 368/368/304
f 363/363/299 361/361/297 366/366/302
f 363/363/299 366/366/302 369/369/305
f 364/364/300 362/362/298 368/368/304
f 364/364/300 368/368/304 370/370/306
f 68/68/37 363/363/299 369/369/305
f 68/68/37 369/369/305 74/74/40
f 352/352/288 364/364/300 370/370/306
f 352/352/288 370/370/306 371/371/307
f 353/353/289 352/352/288 371/371/307
f 353/353/289 371/371/307 372/372/308
f 354/354/290 70/70/38 72/72/39
f 354/354/290 72/72/39 373/373/309
f 355/355/291 353/353/289 372/372/308
f 355/355/291 372/372/308 374/374/310
f 356/356/292 354/354/290 373/373/309
f 356/356/292 373/373/309 375/375/311
f 357/357/293 355/355/291 374/374/310
f 357/357/293 374/374/310 376/376/312
f 358/358/294 356/356/292 375/375/311
f 358/358/294 375/375/311 377/377/313
f 359/359/295 357/357/293 376/376/312
f 359/359/295 376/376/312 365/365/301
f 360/360/296 358/358/294 377/377/313
f 360/360/296 377/377/313 367/367/303
f 373/373/309 72/72/39 76/76/41
f 373/373/309 76/76/41 378/378/314
f 374/374/310 372/372/308 379/379/315
f 374/374/310 379/379/315 380/380/316
f 375/375/311 373/373/309 378/378/314
f 375/375/311 378/378/314 381/381/317
f 376/376/312 374/374/310 380/380/316
f 376/376/312 380/380/316 382/382/318
f 377/377/313 375/375/311 381/381/317
f 377/377/313 381/381/317 383/383/319
f 365/365/301 376/376/312 382/382/318
f 365/365/301 382/382/318 384/384/320
f 367/367/303 377/377/313 383/383/319
f 367/367/303 383/383/319 385/385/321
f 366/366/302 365/365/301 384/384/320
f 366/366/302 384/384/320 386/386/322
f 368/368/304 367/367/303 385/385/321
f 368/368/304 385/385/321 387/387/323
f 369/369/305 366/366/302 386/386/322
f 369/369/305 386/386/322 388/388/324
f 370/370/306 368/368/304 387/387/323
f 370/370/306 387/387/323 389/389/325
f 74/74/40 369/369/305 388/388/324
f 74/74/40 388/388/324 78/78/42
f 371/371/307 370/370/306 389/389/325
f 371/371/307 389/389/325 390/390/326
f 372/372/308 371/371/307 390/390/326
f 372/372/308 390/390/326 379/379/315
f 387/387/323 385/385/321 391/391/327
f 387/387/323 391/391/327 392/392/328
f 388/388/324 386/386/322 393/393/329
f 388/388/324 393/393/329 394/394/330
f 389/389/325 387/387/323 392/392/328
f 389/389/325 392/392/328 395/395/331
f 78/78/42 388/388/324 394/394/330
f 78/78/42 394/394/330 82/82/44
f 390/390/326 389/389/325 395/395/331
f 390/390/326 395/395/331 396/396/332
f 379/379/315 390/390/326 396/396/332
f 379/379/315 396/396/332 397/397/333
f 378/378/314 76/76/41 80/80/43
f 378/378/314 80/80/43 398/398/334
f 380/380/316 379/379/315 397/397/333
f 380/380/316 397/397/333 399/399/335
f 381/381/317 378/378/314 398/398/334
f 381/381/317 398/398/334 400/400/336
f 382/382/318 380/380/316 399/399/335
f 382/382/318 399/399/335 401/401/337
f 383/383/319 381/381/317 400/400/336
f 383/383/319 400/400/336 402/402/338
f 384/384/320 382/382/318 401/401/337
f 384/384/320 401/401/337 403/403/339
f 385/385/321 383/383/319 402/402/338
f 385/385/321 402/402/338 391/391/327
f 386/386/322 384/384/320 403/403/339
f 386/386/322 403/403/339 393/393/329
f 399/399/335 397/397/333 404/404/340
f 399/399/335 404/404/340 405/405/341
f 400/400/336 398/398/334 406/406/342
f 400/400/336 406/406/342 407/407/343
f 401/401/337 399/399/335 405/405/341
f 401/401/337 405/405/341 408/408/344
f 402/402/338 400/400/336 407/407/343
f 402/402/338 407/407/343 409/409/345
f 403/403/339 401/401/337 408/408/344
f 403/403/339 408/408/344 410/410/346
f 391/391/327 402/402/338 409/409/345
f 391/391/327 409/409/345 411/411/347
f 393/393/329 403/403/339 410/410/346
f 393/393/329 410/410/346 412/412/348
f 392/392/328 391/391/327 411/411/347
f 392/392/328 411/411/347 413/413/349
f 394/394/330 393/393/329 412/412/348
f 394/394/330 412/412/348 414/414/350
f 395/395/331 392/392/328 413/413/349
f 395/395/331 413/413/349 415/415/351
f 82/82/44 394/394/330 414/414/350
f 82/82/44 414/414/350 86/86/46
f 396/396/332 395/395/331 415/415/351
f 396/396/332 415/415/351 416/416/352
f 397/397/333 396/396/332 416/416/352
f 397/397/333 416/416/352 404/404/340
f 398/398/334 80/80/43 84/84/45
f 398/398/334 84/84/45 406/406/342
f 414/414/350 412/412/348 417/417/353
f 414/414/350 417/417/353 418/418/354
f 415/415/351 413/413/349 419/419/355
f 415/415/351 419/419/355 420/420/356
f 86/86/46 414/414/350 418/418/354
f 86/86/46 418/418/354 90/90/48
f 416/416/352 415/415/351 420/420/356
f 416/416/352 420/420/356 421/421/357
f 404/404/340 416/416/352 421/421/357
f 404/404/340 421/421/357 422/422/358
f 406/406/342 84/84/45 88/88/47
f 406/406/342 88/88/47 423/423/359
f 405/405/341 404/404/340 422/422/358
f 405/405/341 422/422/358 424/424/360
f 407/407/343 406/406/342 423/423/359
f 407/407/343 423/423/359 425/425/361
f 408/408/344 405/405/341 424/424/360
f 408/408/344 424/424/360 426/426/362
f 409/409/345 407/407/343 425/425/361
f 409/409/345 425/425/361 427/427/363
f 410/410/346 408/408/344 426/426/362
f 410/410/346 426/426/362 428/428/364
f 411/411/347 409/409/345 427/427/363
f 411/411/347 427/427/363 429/429/365
f 412/412/348 410/410/346 428/428/364
f 412/412/348 428/428/364 417/417/353
f 413/413/349 411/411/347 429/429/365
f 413/413/349 429/429/365 419/419/355
f 425/425/361 423/423/359 430/430/366
f 425/425/361 430/430/366 431/431/367
f 426/426/362 424/424/360 432/432/368
f 426/426/362 432/432/368 433/433/369
f 427/427/363 425/425/361 431/431/367
f 427/427/363 431/431/367 434/434/370
f 428/428/364 426/426/362 433/433/369
f 428/428/364 433/433/369 435/435/371
f 429/429/365 427/427/363 434/434/370
f 429/429/365 434/434/370 436/436/372
f 417/417/353 428/428/364 435/435/371
f 417/417/353 435/435/371 437/437/373
f 419/419/355 429/429/365 436/436/372
f 419/419/355 436/436/372 438/438/374
f 418/418/354 417/417/353 437/437/373
f 418/418/354 437/437/373 439/439/375
f 420/420/356 419/419/355 438/438/374
f 420/420/356 438/438/374 440/440/376
f 90/90/48 418/418/354 439/439/375
f 90/90/48 439/439/375 94/94/50
f 421/421/357 420/420/356 440/440/376
f 421/421/357 440/440/376 441/441/377
f 422/422/358 421/421/357 441/441/377
f 422/422/358 441/441/377 442/442/378
f 423/423/359 88/88/47 92/92/49
f 423/423/359 92/92/49 430/430/366
f 424/424/360 422/422/358 442/442/378
f 424/424/360 442/442/378 432/432/368
f 440/440/376 438/438/374 443/443/379
f 440/440/376 443/443/379 444/444/380
f 94/94/50 439/439/375 445/445/381
f 94/94/50 445/445/381 98/98/52
f 441/441/377 440/440/376 444/444/380
f 441/441/377 444/444/380 446/446/382
f 442/442/378 441/441/377 446/446/382
f 442/442/378 446/446/382 447/447/383
f 430/430/366 92/92/49 96/96/51
f 430/430/366 96/96/51 448/448/384
f 432/432/368 442/442/378 447/447/383
f 432/432/368 447/447/383 449/449/385
f 431/431/367 430/430/366 448/448/384
f 431/431/367 448/448/384 450/450/386
f 433/433/369 432/432/368 449/449/385
f 433/433/369 449/449/385 451/451/387
f 434/434/370 431/431/367 450/450/386
f 434/434/370 450/450/386 452/452/388
f 435/435/371 433/433/369 451/451/387
f 435/435/371 451/451/387 453/453/389
f 436/436/372 434/434/370 452/452/388
f 436/436/372 452/452/388 454/454/390
f 437/437/373 435/435/371 453/453/389
f 437/437/373 453/453/389 455/455/391
f 438/438/374 436/436/372 454/454/390
f 438/438/374 454/454/390 443/443/379
f 439/439/375 437/437/373 455/455/391
f 439/439/375 455/455/391 445/445/381
f 456/456/387 457/457/385 458/458/392
f 456/456/387 458/458/392 459/459/393
f 460/460/388 461/461/386 462/462/394
f 460/460/388 462/462/394 463/463/395
f 464/464/389 456/456/387 459/459/393
f 464/464/389 459/459/393 465/465/396
f 466/466/390 460/460/388 463/463/395
f 466/466/390 463/463/395 467/467/397
f 468/468/391 464/464/389 465/465/396
f 468/468/391 465/465/396 469/469/398
f 470/470/379 466/466/390 467/467/397
f 470/470/379 467/467/397 471/471/399
f 472/472/381 468/468/391 469/469/398
f 472/472/381 469/469/398 473/473/400
f 474/474/380 470/470/379 471/471/399
f 474/474/380 471/471/399 475/475/401
f 103/103/52 472/472/381 473/473/400
f 103/103/52 473/473/400 104/104/54
f 476/476/382 474/474/380 475/475/401
f 476/476/382 475/475/401 477/477/402
f 478/478/383 476/476/382 477/477/402
f 478/478/383 477/477/402 479/479/403
f 480/480/384 99/99/51 101/101/53
f 480/480/384 101/101/53 481/481/404
f 457/457/385 478/478/383 479/479/403
f 457/457/385 479/479/403 458/458/392
f 461/461/386 480/480/384 481/481/404
f 461/461/386 481/481/404 462/462/394
f 104/104/54 473/473/400 482/482/405
f 104/104/54 482/482/405 108/108/56
f 477/477/402 475/475/401 483/483/406
f 477/477/402 483/483/406 484/484/407
f 479/479/403 477/477/402 484/484/407
f 479/479/403 484/484/407 485/485/408
f 481/481/404 101/101/53 106/106/55
f 481/481/404 106/106/55 486/486/409
f 458/458/392 479/479/403 485/485/408
f 458/458/392 485/485/408 487/487/410
f 462/462/394 481/481/404 486/486/409
f 462/462/394 486/486/409 488/488/411
f 459/459/393 458/458/392 487/487/410
f 459/459/393 487/487/410 489/489/412
f 463/463/395 462/462/394 488/488/411
f 463/463/395 488/488/411 490/490/413
f 465/465/396 459/459/393 489/489/412
f 465/465/396 489/489/412 491/491/414
f 467/467/397 463/463/395 490/490/413
f 467/467/397 490/490/413 492/492/415
f 469/469/398 465/465/396 491/491/414
f 469/469/398 491/491/414 493/493/416
f 471/471/399 467/467/397 492/492/415
f 471/471/399 492/492/415 494/494/417
f 473/473/400 469/469/398 493/493/416
f 473/473/400 493/493/416 482/482/405
f 475/475/401 471/471/399 494/494/417
f 475/475/401 494/494/417 483/483/406
f 491/491/414 489/489/412 495/495/418
f 491/491/414 495/495/418 496/496/419
f 492/492/415 490/490/413 497/497/420
f 492/492/415 497/497/420 498/498/421
f 493/493/416 491/491/414 496/496/419
f 493/493/416 496/496/419 499/499/422
f 494/494/417 492/492/415 498/498/421
f 494/494/417 498/498/421 500/500/423
f 482/482/405 493/493/416 499/499/422
f 482/482/405 499/499/422 501/501/424
f 483/483/406 494/494/417 500/500/423
f 483/483/406 500/500/423 502/502/425
f 108/108/56 482/482/405 501/501/424
f 108/108/56 501/501/424 112/112/58
f 484/484/407 483/483/406 502/502/425
f 484/484/407 502/502/425 503/503/426
f 485/485/408 484/484/407 503/503/426
f 485/485/408 503/503/426 504/504/427
f 486/486/409 106/106/55 110/110/57
f 486/486/409 110/110/57 505/505/428
f 487/487/410 485/485/408 504/504/427
f 487/487/410 504/504/427 506/506/429
f 488/488/411 486/486/409 505/505/428
f 488/488/411 505/505/428 507/507/430
f 489/489/412 487/487/410 506/506/429
f 489/489/412 506/506/429 495/495/418
f 490/490/413 488/488/411 507/507/430
f 490/490/413 507/507/430 497/497/420
f 504/504/427 503/503/426 508/508/431
f 504/504/427 508/508/431 509/509/432
f 505/505/428 110/110/57 114/114/59
f 505/505/428 114/114/59 510/510/433
f 506/506/429 504/504/427 509/509/432
f 506/506/429 509/509/432 511/511/434
f 507/507/430 505/505/428 510/510/433
f 507/507/430 510/510/433 512/512/435
f 495/495/418 506/506/429 511/511/434
f 495/495/418 511/511/434 513/513/436
f 497/497/420 507/507/430 512/512/435
f 497/497/420 512/512/435 514/514/437
f 496/496/419 495/495/418 513/513/436
f 496/496/419 513/513/436 515/515/438
f 498/498/421 497/497/420 514/514/437
f 498/498/421 514/514/437 516/516/439
f 499/499/422 496/496/419 515/515/438
f 499/499/422 515/515/438 517/517/440
f 500/500/423 498/498/421 516/516/439
f 500/500/423 516/516/439 518/518/441
f 501/501/424 499/499/422 517/517/440
f 501/501/424 517/517/440 519/519/442
f 502/502/425 500/500/423 518/518/441
f 502/502/425 518/518/441 520/520/443
f 112/112/58 501/501/424 519/519/442
f 112/112/58 519/519/442 116/116/60
f 503/503/426 502/502/425 520/520/443
f 503/503/426 520/520/443 508/508/431
f 516/516/439 514/514/437 521/521/444
f 516/516/439 521/521/444 522/522/445
f 517/517/440 515/515/438 523/523/446
f 517/517/440 523/523/446 524/524/447
f 518/518/441 516/516/439 522/522/445
f 518/518/441 522/522/445 525/525/448
f 519/519/442 517/517/440 524/524/447
f 519/519/442 524/524/447 526/526/449
f 520/520/443 518/518/441 525/525/448
f 520/520/443 525/525/448 527/527/450
f 116/116/60 519/519/442 526/526/449
f 116/116/60 526/526/449 120/120/62
f 508/508/431 520/520/443 527/527/450
f 508/508/431 527/527/450 528/528/451
f 509/509/432 508/508/431 528/528/451
f 509/509/432 528/528/451 529/529/452
f 510/510/433 114/114/59 118/118/61
f 510/510/433 118/118/61 530/530/453
f 511/511/434 509/509/432 529/529/452
f 511/511/434 529/529/452 531/531/454
f 512/512/435 510/510/433 530/530/453
f 512/512/435 530/530/453 532/532/455
f 513/513/436 511/511/434 531/531/454
f 513/513/436 531/531/454 533/533/456
f 514/514/437 512/512/435 532/532/455
f 514/514/437 532/532/455 521/521/444
f 515/515/438 513/513/436 533/533/456
f 515/515/438 533/533/456 523/523/446
f 529/529/452 528/528/451 534/534/457
f 529/529/452 534/534/457 535/535/458
f 530/530/453 118/118/61 122/122/63
f 530/530/453 122/122/63 536/536/459
f 531/531/454 529/529/452 535/535/458
f 531/531/454 535/535/458 537/537/460
f 532/532/455 530/530/453 536/536/459
f 532/532/455 536/536/459 538/538/461
f 533/533/456 531/531/454 537/537/460
f 533/533/456 537/537/460 539/539/462
f 521/521/444 532/532/455 538/538/461
f 521/521/444 538/538/461 540/540/463
f 523/523/446 533/533/456 539/539/462
f 523/523/446 539/539/462 541/541/464
f 522/522/445 521/521/444 540/540/463
f 522/522/445 540/540/463 542/542/465
f 524/524/447 523/523/446 541/541/464
f 524/524/447 541/541/464 543/543/466
f 525/525/448 522/522/445 542/542/465
f 525/525/448 542/542/465 544/544/467
f 526/526/449 524/524/447 543/543/466
f 526/526/449 543/543/466 545/545/468
f 527/527/450 525/525/448 544/544/467
f 527/527/450 544/544/467 546/546/469
f 120/120/62 526/526/449 545/545/468
f 120/120/62 545/545/468 124/124/64
f 528/528/451 527/527/450 546/546/469
f 528/528/451 546/546/469 534/534/457
f 543/543/466 541/541/464 547/547/470
f 543/543/466 547/547/470 548/548/471
f 544/544/467 542/542/465 549/549/472
f 544/544/467 549/549/472 550/550/473
f 545/545/468 543/543/466 548/548/471
f 545/545/468 548/548/471 551/551/474
f 546/546/469 544/544/467 550/550/473
f 546/546/469 550/550/473 552/552/475
f 124/124/64 545/545/468 551/551/474
f 124/124/64 551/551/474 128/128/66
f 534/534/457 546/546/469 552/552/475
f 534/534/457 552/552/475 553/553/476
f 535/535/458 534/534/457 553/553/476
f 535/535/458 553/553/476 554/554/477
f 536/536/459 122/122/63 126/126/65
f 536/536/459 126/126/65 555/555/478
f 537/537/460 535/535/458 554/554/477
f 537/537/460 554/554/477 556/556/479
f 538/538/461 536/536/459 555/555/478
f 538/538/461 555/555/478 557/557/480
f 539/539/462 537/537/460 556/556/479
f 539/539/462 556/556/479 558/558/481
f 540/540/463 538/538/461 557/557/480
f 540/540/463 557/557/480 559/559/482
f 541/541/464 539/539/462 558/558/481
f 541/541/464 558/558/481 547/547/470
f 542/542/465 540/540/463 559/559/482
f 542/542/465 559/559/482 549/549/472
f 555/555/478 126/126/65 1/1/1
f 555/555/478 1/1/1 135/135/71
f 556/556/479 554/554/477 131/131/67
f 556/556/479 131/131/67 137/137/73
f 557/557/480 555/555/478 135/135/71
f 557/557/480 135/135/71 139/139/75
f 558/558/481 556/556/479 137/137/73
f 558/558/481 137/137/73 141/141/77
f 559/559/482 557/557/480 139/139/75
f 559/559/482 139/139/75 143/143/79
f 547/547/470 558/558/481 141/141/77
f 547/547/470 141/141/77 145/145/81
f 549/549/472 559/559/482 143/143/79
f 549/549/472 143/143/79 147/147/83
f 548/548/471 547/547/470 145/145/81
f 548/548/471 145/145/81 149/149/85
f 550/550/473 549/549/472 147/147/83
f 550/550/473 147/147/83 151/151/87
f 551/551/474 548/548/471 149/149/85
f 551/551/474 149/149/85 153/153/89
f 552/552/475 550/550/473 151/151/87
f 552/552/475 151/151/87 155/155/91
f 128/128/66 551/551/474 153/153/89
f 128/128/66 153/153/89 5/5/5
f 553/553/476 552/552/475 155/155/91
f 553/553/476 155/155/91 132/132/68
f 554/554/477 553/553/476 132/132/68
f 554/554/477 132/132/68 131/131/67
# Vertices: 559, normals: 482, texture coordinates: 559, faces: 960

